<?xml version="1.0" encoding="UTF-8" standalone="no"?>
<svg
   xmlns:dc="http://purl.org/dc/elements/1.1/"
   xmlns:cc="http://creativecommons.org/ns#"
   xmlns:rdf="http://www.w3.org/1999/02/22-rdf-syntax-ns#"
   xmlns:svg="http://www.w3.org/2000/svg"
   xmlns="http://www.w3.org/2000/svg"
   viewBox="0 0 226.77333 226.77333"
   height="226.77333"
   width="226.77333"
   xml:space="preserve"
   id="svg2"
   version="1.1"><metadata
     id="metadata8"><rdf:RDF><cc:Work
         rdf:about=""><dc:format>image/svg+xml</dc:format><dc:type
           rdf:resource="http://purl.org/dc/dcmitype/StillImage" /></cc:Work></rdf:RDF></metadata><defs
     id="defs6"><clipPath
       id="clipPath18"
       clipPathUnits="userSpaceOnUse"><path
         id="path16"
         d="M 0,170.08 H 170.08 V 0 H 0 Z" /></clipPath><clipPath
       id="clipPath96"
       clipPathUnits="userSpaceOnUse"><path
         id="path94"
         d="m 127.799,113.513 h 4.49 v -8.673 h -4.49 z" /></clipPath><clipPath
       id="clipPath112"
       clipPathUnits="userSpaceOnUse"><path
         id="path110"
         d="m 118.801,117.123 h 8.998 V 113.4 h -8.998 z" /></clipPath><clipPath
       id="clipPath128"
       clipPathUnits="userSpaceOnUse"><path
         id="path126"
         d="m 118.801,117.123 h 4.085 V 113.4 h -4.085 z" /></clipPath><clipPath
       id="clipPath144"
       clipPathUnits="userSpaceOnUse"><path
         id="path142"
         d="m 128.164,108.592 h 4.086 v -3.724 h -4.086 z" /></clipPath><clipPath
       id="clipPath160"
       clipPathUnits="userSpaceOnUse"><path
         id="path158"
         d="m 132.25,110.257 h 3.352 v -8.435 h -3.352 z" /></clipPath><clipPath
       id="clipPath176"
       clipPathUnits="userSpaceOnUse"><path
         id="path174"
         d="m 133.361,112.099 h 2.241 v -10.277 h -2.241 z" /></clipPath><clipPath
       id="clipPath192"
       clipPathUnits="userSpaceOnUse"><path
         id="path190"
         d="m 134.038,112.099 h 1.109 v -2.976 h -1.109 z" /></clipPath><clipPath
       id="clipPath208"
       clipPathUnits="userSpaceOnUse"><path
         id="path206"
         d="m 115.463,120.188 h 8.55 v -3.072 h -8.55 z" /></clipPath><clipPath
       id="clipPath224"
       clipPathUnits="userSpaceOnUse"><path
         id="path222"
         d="m 115.463,120.435 h 10.283 v -1.66 h -10.283 z" /></clipPath><clipPath
       id="clipPath240"
       clipPathUnits="userSpaceOnUse"><path
         id="path238"
         d="m 122.729,120.682 h 3.017 v -1.027 h -3.017 z" /></clipPath><clipPath
       id="clipPath256"
       clipPathUnits="userSpaceOnUse"><path
         id="path254"
         d="m 124.013,119.655 h 3.224 v -4.415 h -3.224 z" /></clipPath><clipPath
       id="clipPath272"
       clipPathUnits="userSpaceOnUse"><path
         id="path270"
         d="m 129.551,113.136 h 4.489 v -2.875 h -4.489 z" /></clipPath><clipPath
       id="clipPath288"
       clipPathUnits="userSpaceOnUse"><path
         id="path286"
         d="m 114.7,107.672 h 7.924 V 98.7607 H 114.7 Z" /></clipPath><clipPath
       id="clipPath304"
       clipPathUnits="userSpaceOnUse"><path
         id="path302"
         d="m 114.7,105.175 h 5.706 V 98.7607 H 114.7 Z" /></clipPath><clipPath
       id="clipPath320"
       clipPathUnits="userSpaceOnUse"><path
         id="path318"
         d="m 114.7,104.106 h 4.757 V 98.7607 H 114.7 Z" /></clipPath><clipPath
       id="clipPath336"
       clipPathUnits="userSpaceOnUse"><path
         id="path334"
         d="m 122.624,108.459 h 9.665 v -3.619 h -9.665 z" /></clipPath><clipPath
       id="clipPath352"
       clipPathUnits="userSpaceOnUse"><path
         id="path350"
         d="m 122.031,107.672 h 10.258 v -4.271 h -10.258 z" /></clipPath><clipPath
       id="clipPath368"
       clipPathUnits="userSpaceOnUse"><path
         id="path366"
         d="m 122.031,104.84 h 10.258 v -2.663 h -10.258 z" /></clipPath><clipPath
       id="clipPath384"
       clipPathUnits="userSpaceOnUse"><path
         id="path382"
         d="m 114.7,103.401 h 11.456 V 98.7607 H 114.7 Z" /></clipPath><clipPath
       id="clipPath400"
       clipPathUnits="userSpaceOnUse"><path
         id="path398"
         d="m 114.7,102.415 h 8.666 V 98.7607 H 114.7 Z" /></clipPath><clipPath
       id="clipPath416"
       clipPathUnits="userSpaceOnUse"><path
         id="path414"
         d="m 118.82,117.116 h 4.072 v -9.444 h -4.072 z" /></clipPath><clipPath
       id="clipPath432"
       clipPathUnits="userSpaceOnUse"><path
         id="path430"
         d="m 118.378,117.116 h 4.246 V 106.73 h -4.246 z" /></clipPath><clipPath
       id="clipPath448"
       clipPathUnits="userSpaceOnUse"><path
         id="path446"
         d="m 116.973,117.116 h 1.847 V 106.73 h -1.847 z" /></clipPath><clipPath
       id="clipPath464"
       clipPathUnits="userSpaceOnUse"><path
         id="path462"
         d="m 114.7,109.986 h 3.678 V 98.7607 H 114.7 Z" /></clipPath><clipPath
       id="clipPath480"
       clipPathUnits="userSpaceOnUse"><path
         id="path478"
         d="m 126.156,104.853 h 9.446 v -4.534 h -9.446 z" /></clipPath><clipPath
       id="clipPath496"
       clipPathUnits="userSpaceOnUse"><path
         id="path494"
         d="m 115.235,120.188 h 3.585 v -10.202 h -3.585 z" /></clipPath><clipPath
       id="clipPath512"
       clipPathUnits="userSpaceOnUse"><path
         id="path510"
         d="m 127.799,113.907 h 6.241 v -1.805 h -6.241 z" /></clipPath><clipPath
       id="clipPath528"
       clipPathUnits="userSpaceOnUse"><path
         id="path526"
         d="m 125.746,119.655 h 2.053 v -6.142 h -2.053 z" /></clipPath><clipPath
       id="clipPath544"
       clipPathUnits="userSpaceOnUse"><path
         id="path542"
         d="m 127.799,116.981 h 3.258 v -3.468 h -3.258 z" /></clipPath><clipPath
       id="clipPath560"
       clipPathUnits="userSpaceOnUse"><path
         id="path558"
         d="m 115.49,120.188 h 3.33 v -6.014 h -3.33 z" /></clipPath><clipPath
       id="clipPath576"
       clipPathUnits="userSpaceOnUse"><path
         id="path574"
         d="m 129.709,104.887 h 5.88 v -3.053 h -5.88 z" /></clipPath><clipPath
       id="clipPath592"
       clipPathUnits="userSpaceOnUse"><path
         id="path590"
         d="m 115.235,117.116 h 3.585 v -7.13 h -3.585 z" /></clipPath><clipPath
       id="clipPath608"
       clipPathUnits="userSpaceOnUse"><path
         id="path606"
         d="m 126.156,104.853 h 6.121 v -4.534 h -6.121 z" /></clipPath><clipPath
       id="clipPath624"
       clipPathUnits="userSpaceOnUse"><path
         id="path622"
         d="m 118.361,117.116 h 2.032 v -10.423 h -2.032 z" /></clipPath><clipPath
       id="clipPath640"
       clipPathUnits="userSpaceOnUse"><path
         id="path638"
         d="m 122.031,105.652 h 10.246 v -2.251 h -10.246 z" /></clipPath><clipPath
       id="clipPath656"
       clipPathUnits="userSpaceOnUse"><path
         id="path654"
         d="m 125.556,113.513 h 2.762 v -5.054 h -2.762 z" /></clipPath><clipPath
       id="clipPath672"
       clipPathUnits="userSpaceOnUse"><path
         id="path670"
         d="m 122.892,113.513 h 4.907 v -2.535 h -4.907 z" /></clipPath><clipPath
       id="clipPath688"
       clipPathUnits="userSpaceOnUse"><path
         id="path686"
         d="m 122.628,110.978 h 5.69 v -3.308 h -5.69 z" /></clipPath><clipPath
       id="clipPath704"
       clipPathUnits="userSpaceOnUse"><path
         id="path702"
         d="m 122.628,113.406 h 2.928 v -5.736 h -2.928 z" /></clipPath><clipPath
       id="clipPath720"
       clipPathUnits="userSpaceOnUse"><path
         id="path718"
         d="m 125.556,112.5 h 1.657 v -3.034 h -1.657 z" /></clipPath><clipPath
       id="clipPath736"
       clipPathUnits="userSpaceOnUse"><path
         id="path734"
         d="m 123.957,112.5 h 2.943 v -1.522 h -2.943 z" /></clipPath><clipPath
       id="clipPath752"
       clipPathUnits="userSpaceOnUse"><path
         id="path750"
         d="m 122.682,110.978 h 4.531 v -3.248 h -4.531 z" /></clipPath><clipPath
       id="clipPath768"
       clipPathUnits="userSpaceOnUse"><path
         id="path766"
         d="m 122.607,112.435 h 2.949 v -4.788 h -2.949 z" /></clipPath><clipPath
       id="clipPath784"
       clipPathUnits="userSpaceOnUse"><path
         id="path782"
         d="m 127.767,113.542 h 5.594 v -8.672 h -5.594 z" /></clipPath><clipPath
       id="clipPath800"
       clipPathUnits="userSpaceOnUse"><path
         id="path798"
         d="m 118.82,118.775 h 8.979 v -5.262 h -8.979 z" /></clipPath><clipPath
       id="clipPath816"
       clipPathUnits="userSpaceOnUse"><path
         id="path814"
         d="m 115.463,120.188 h 6.588 v -3.131 h -6.588 z" /></clipPath><clipPath
       id="clipPath832"
       clipPathUnits="userSpaceOnUse"><path
         id="path830"
         d="m 131.858,108.085 h 3.75 v -6.256 h -3.75 z" /></clipPath><clipPath
       id="clipPath848"
       clipPathUnits="userSpaceOnUse"><path
         id="path846"
         d="m 129.645,113.103 h 3.418 v -5.078 h -3.418 z" /></clipPath><clipPath
       id="clipPath864"
       clipPathUnits="userSpaceOnUse"><path
         id="path862"
         d="m 127.799,113.513 h 4.096 v -5.488 h -4.096 z" /></clipPath><clipPath
       id="clipPath880"
       clipPathUnits="userSpaceOnUse"><path
         id="path878"
         d="m 122.005,117.074 h 5.794 v -3.561 h -5.794 z" /></clipPath><clipPath
       id="clipPath896"
       clipPathUnits="userSpaceOnUse"><path
         id="path894"
         d="m 122.051,118.775 h 3.165 v -1.718 h -3.165 z" /></clipPath><clipPath
       id="clipPath912"
       clipPathUnits="userSpaceOnUse"><path
         id="path910"
         d="m 131.558,111.475 h 1.82 v -3.401 h -1.82 z" /></clipPath><clipPath
       id="clipPath928"
       clipPathUnits="userSpaceOnUse"><path
         id="path926"
         d="m 122.051,118.605 h 5.146 v -3.273 h -5.146 z" /></clipPath><clipPath
       id="clipPath944"
       clipPathUnits="userSpaceOnUse"><path
         id="path942"
         d="m 125.746,119.655 h 2.942 v -6.142 h -2.942 z" /></clipPath><clipPath
       id="clipPath960"
       clipPathUnits="userSpaceOnUse"><path
         id="path958"
         d="m 127.799,114.827 h 6.241 v -2.725 h -6.241 z" /></clipPath><clipPath
       id="clipPath976"
       clipPathUnits="userSpaceOnUse"><path
         id="path974"
         d="m 114.7,107.896 h 2.651 V 98.7607 H 114.7 Z" /></clipPath><clipPath
       id="clipPath992"
       clipPathUnits="userSpaceOnUse"><path
         id="path990"
         d="m 115.235,112.015 h 3.143 v -5.285 h -3.143 z" /></clipPath><clipPath
       id="clipPath1008"
       clipPathUnits="userSpaceOnUse"><path
         id="path1006"
         d="m 122.031,103.401 h 5.563 v -3.082 h -5.563 z" /></clipPath><clipPath
       id="clipPath1024"
       clipPathUnits="userSpaceOnUse"><path
         id="path1022"
         d="m 122.031,107.093 h 2.658 v -3.692 h -2.658 z" /></clipPath><clipPath
       id="clipPath1040"
       clipPathUnits="userSpaceOnUse"><path
         id="path1038"
         d="m 118.423,109.588 h 3.53 v -2.838 h -3.53 z" /></clipPath></defs><g
     transform="matrix(1.3333333,0,0,-1.3333333,0,226.77333)"
     id="g10"><g
       id="g12"><g
         clip-path="url(#clipPath18)"
         id="g14"><g
           transform="translate(85.7705,155.8906)"
           id="g20"><path
             id="path22"
             style="fill:#873570;fill-opacity:1;fill-rule:evenodd;stroke:none"
             d="m 0,0 c 6.246,0.089 12.071,-0.686 17.816,-2.122 4.483,-1.124 8.808,-2.711 12.996,-4.7 5.809,-2.762 11.142,-6.266 16.014,-10.493 4.545,-3.944 8.528,-8.412 11.951,-13.388 2.214,-3.212 4.152,-6.586 5.801,-10.129 3.074,-6.605 5.133,-13.522 6.016,-20.78 0.263,-2.187 0.406,-4.39 0.536,-6.59 0.296,-5.107 -0.161,-10.163 -1.034,-15.187 -0.943,-5.417 -2.529,-10.636 -4.721,-15.664 -1.785,-4.102 -3.925,-8.01 -6.454,-11.695 -1.858,-2.711 -3.889,-5.273 -6.094,-7.702 -5.333,-5.889 -11.472,-10.734 -18.396,-14.539 -6.436,-3.536 -13.253,-6.011 -20.45,-7.398 -3.001,-0.58 -6.018,-1.003 -9.07,-1.151 -2.096,-0.102 -4.196,-0.222 -6.291,-0.163 -8.172,0.233 -16.106,1.743 -23.762,4.701 -6.482,2.508 -12.497,5.87 -17.983,10.177 -1.883,1.479 -3.675,3.085 -5.443,4.707 -3.535,3.239 -6.596,6.91 -9.338,10.853 -3.634,5.227 -6.528,10.849 -8.643,16.883 -1.105,3.153 -1.997,6.369 -2.642,9.65 -0.556,2.828 -1.015,5.675 -1.134,8.557 -0.114,2.832 -0.255,5.673 -0.151,8.5 0.196,5.268 1.013,10.454 2.412,15.542 1.359,4.938 3.214,9.673 5.581,14.195 2.399,4.58 5.224,8.874 8.608,12.761 1.739,1.997 3.54,3.947 5.443,5.78 4.314,4.155 9.119,7.653 14.343,10.542 4.032,2.229 8.223,4.075 12.601,5.481 4.419,1.423 8.931,2.407 13.538,2.933 C -5.199,-0.126 -2.446,0.075 0,0" /></g><g
           transform="translate(153.8965,83.75)"
           id="g24"><path
             id="path26"
             style="fill:#f9c7df;fill-opacity:1;fill-rule:nonzero;stroke:none"
             d="m 0,0 c 0,37.9 -30.525,68.625 -68.177,68.625 -37.654,0 -68.177,-30.725 -68.177,-68.625 0,-37.903 30.523,-68.63 68.177,-68.63 C -30.525,-68.63 0,-37.903 0,0" /></g><g
           transform="translate(86.874,149.7983)"
           id="g28"><path
             id="path30"
             style="fill:#9df4eb;fill-opacity:1;fill-rule:nonzero;stroke:none"
             d="m 0,0 c -35.578,0.649 -65.049,-28.202 -65.685,-64.312 -0.641,-36.111 27.79,-66.016 63.372,-66.664 35.584,-0.649 65.052,28.203 65.69,64.314 C 64.016,-30.55 35.586,-0.647 0,0 m 0.034,1.937 c 36.637,-0.666 65.91,-31.456 65.248,-68.634 -0.656,-37.177 -30.993,-66.881 -67.629,-66.213 -36.63,0.664 -65.904,31.453 -65.247,68.633 0.66,37.175 30.998,66.881 67.628,66.214" /></g><path
           id="path32"
           style="fill:#9df4eb;fill-opacity:1;fill-rule:nonzero;stroke:none"
           d="M 141.954,60.285 H 31.204 v 1.211 h 110.75 z" /><g
           transform="translate(72.3389,108.9927)"
           id="g34"><path
             id="path36"
             style="fill:#000000;fill-opacity:1;fill-rule:nonzero;stroke:none"
             d="m 0,0 h 4.831 c 5.611,0 9.667,4.298 9.667,10.223 0,5.925 -4.056,10.222 -9.667,10.222 H 0 Z m 4.903,20.722 c 5.753,0 9.936,-4.407 9.936,-10.499 0,-6.093 -4.183,-10.499 -9.936,-10.499 h -7.829 v 0.205 h 0.544 c 1.865,0 2.044,0.375 2.044,0.775 v 19.121 c 0,0.427 -0.247,0.69 -2.044,0.69 h -0.544 v 0.207 z" /></g><g
           transform="translate(72.3389,108.9927)"
           id="g38"><path
             id="path40"
             style="fill:none;stroke:#000000;stroke-width:1;stroke-linecap:butt;stroke-linejoin:miter;stroke-miterlimit:10;stroke-dasharray:none;stroke-opacity:1"
             d="m 0,0 h 4.831 c 5.611,0 9.667,4.298 9.667,10.223 0,5.925 -4.056,10.222 -9.667,10.222 H 0 Z m 4.903,20.722 c 5.753,0 9.936,-4.407 9.936,-10.499 0,-6.093 -4.183,-10.499 -9.936,-10.499 h -7.829 v 0.205 h 0.544 c 1.865,0 2.044,0.375 2.044,0.775 v 19.121 c 0,0.427 -0.247,0.69 -2.044,0.69 h -0.544 v 0.207 z" /></g><g
           transform="translate(101.6016,117.2549)"
           id="g42"><path
             id="path44"
             style="fill:#000000;fill-opacity:1;fill-rule:nonzero;stroke:none"
             d="m 0,0 c 0,0.149 -0.012,0.29 -0.039,0.413 -0.529,3.079 -2.694,5.208 -5.937,5.208 -3.427,0 -6.151,-2.569 -6.314,-6.562 H -0.611 C -0.137,-0.941 0,-0.458 0,0 m -12.305,-1.354 c 0,-4.036 2.546,-6.979 6.197,-6.979 3.074,0 4.953,1.355 5.971,3.194 l 0.247,-0.14 c -1.062,-1.919 -3.062,-3.329 -6.218,-3.329 -3.829,0 -6.537,3.095 -6.537,7.254 v 0.289 c 0.122,4.076 2.914,6.964 6.669,6.964 3.894,0 6.4,-2.972 6.4,-6.977 0,-0.098 -0.083,-0.137 -0.135,-0.137 h -12.594 z" /></g><g
           transform="translate(101.6016,117.2549)"
           id="g46"><path
             id="path48"
             style="fill:none;stroke:#000000;stroke-width:1;stroke-linecap:butt;stroke-linejoin:miter;stroke-miterlimit:10;stroke-dasharray:none;stroke-opacity:1"
             d="m 0,0 c 0,0.149 -0.012,0.29 -0.039,0.413 -0.529,3.079 -2.694,5.208 -5.937,5.208 -3.427,0 -6.151,-2.569 -6.314,-6.562 H -0.611 C -0.137,-0.941 0,-0.458 0,0 Z m -12.305,-1.354 c 0,-4.036 2.546,-6.979 6.197,-6.979 3.074,0 4.953,1.355 5.971,3.194 l 0.247,-0.14 c -1.062,-1.919 -3.062,-3.329 -6.218,-3.329 -3.829,0 -6.537,3.095 -6.537,7.254 v 0.289 c 0.122,4.076 2.914,6.964 6.669,6.964 3.894,0 6.4,-2.972 6.4,-6.977 0,-0.098 -0.083,-0.137 -0.135,-0.137 h -12.594 z" /></g><g
           transform="translate(37.146,104.0273)"
           id="g50"><path
             id="path52"
             style="fill:#000000;fill-opacity:1;fill-rule:nonzero;stroke:none"
             d="m 0,0 c 0.062,0 0.144,-0.043 0.184,-0.124 l 12.314,-26.495 c 0.142,-0.314 0.267,-0.458 0.39,-0.458 0.125,0 0.267,0.144 0.411,0.458 L 25.428,-0.124 C 25.465,-0.043 25.55,0 25.611,0 h 3.803 v -0.311 c -2.467,0 -3.351,-0.231 -3.351,-1.921 0,-0.145 0.02,-0.482 0.02,-0.482 l 2.119,-27.306 c 0.041,-0.646 0.223,-1.355 2.836,-1.355 h 0.431 v -0.332 h -8.632 v 0.332 h 2.407 c 2.198,0 2.464,0.418 2.464,0.961 0,0.102 -0.019,0.333 -0.019,0.333 L 25.465,-1.042 13.341,-27.518 c -0.145,-0.331 -0.206,-1.167 -0.206,-1.167 H 12.56 c 0,0 -0.04,0.878 -0.184,1.167 L -0.021,-0.856 -2.239,-30.061 v -0.207 c 0,-0.604 0.265,-1.107 2.652,-1.107 h 2.3 v -0.332 h -8.655 v 0.332 h 0.453 c 2.612,0 2.796,0.709 2.839,1.355 l 2.074,27.33 c 0,0 0.02,0.333 0.02,0.48 0,1.689 -0.882,1.899 -3.33,1.899 l 0,0.311 z" /></g><g
           transform="translate(37.146,104.0273)"
           id="g54"><path
             id="path56"
             style="fill:none;stroke:#000000;stroke-width:1;stroke-linecap:butt;stroke-linejoin:miter;stroke-miterlimit:10;stroke-dasharray:none;stroke-opacity:1"
             d="m 0,0 c 0.062,0 0.144,-0.043 0.184,-0.124 l 12.314,-26.495 c 0.142,-0.314 0.267,-0.458 0.39,-0.458 0.125,0 0.267,0.144 0.411,0.458 L 25.428,-0.124 C 25.465,-0.043 25.55,0 25.611,0 h 3.803 v -0.311 c -2.467,0 -3.351,-0.231 -3.351,-1.921 0,-0.145 0.02,-0.482 0.02,-0.482 l 2.119,-27.306 c 0.041,-0.646 0.223,-1.355 2.836,-1.355 h 0.431 v -0.332 h -8.632 v 0.332 h 2.407 c 2.198,0 2.464,0.418 2.464,0.961 0,0.102 -0.019,0.333 -0.019,0.333 L 25.465,-1.042 13.341,-27.518 c -0.145,-0.331 -0.206,-1.167 -0.206,-1.167 H 12.56 c 0,0 -0.04,0.878 -0.184,1.167 L -0.021,-0.856 -2.239,-30.061 v -0.207 c 0,-0.604 0.265,-1.107 2.652,-1.107 h 2.3 v -0.332 h -8.655 v 0.332 h 0.453 c 2.612,0 2.796,0.709 2.839,1.355 l 2.074,27.33 c 0,0 0.02,0.333 0.02,0.48 0,1.689 -0.882,1.899 -3.33,1.899 l 0,0.311 z" /></g><g
           transform="translate(78.6265,83.167)"
           id="g58"><path
             id="path60"
             style="fill:#000000;fill-opacity:1;fill-rule:nonzero;stroke:none"
             d="m 0,0 c -4.15,-0.439 -7.52,-1.774 -7.52,-5.422 0,-2.962 3.142,-5.113 7.5,-5.113 4.871,0 8.636,4.548 8.636,8.973 v 4.19 C 7.236,0.313 2.263,0.23 0,0 M 9.129,4.192 V -5.945 l 0.329,-1.983 c 0.286,-1.751 0.675,-2.48 1.25,-2.502 l 2.201,0.21 0.043,-0.422 -2.244,-0.311 H 10.69 c -1.01,0 -1.481,1.255 -1.75,2.942 -0.1,0.645 -0.324,1.879 -0.324,2.044 v 0.46 c 0,0.376 -0.065,0.563 -0.146,0.563 -0.081,0 -0.186,-0.147 -0.308,-0.438 -1.42,-3.087 -4.484,-5.571 -8.182,-5.571 -4.644,0 -8.018,2.315 -8.018,5.531 0,4.005 3.806,5.401 7.998,5.84 2.548,0.27 7.79,0.458 8.549,2.981 0.065,0.232 0.107,0.46 0.107,0.671 v 0.122 c -0.022,3.651 -2.551,6.342 -6.188,6.342 -4.111,0 -7.439,-1.855 -7.439,-4.151 0,-0.273 -0.167,-0.439 -0.434,-0.439 -0.268,0 -0.433,0.166 -0.433,0.439 0,2.525 3.699,4.571 8.241,4.571 3.928,0 6.766,-2.837 6.766,-6.762" /></g><g
           transform="translate(78.6265,83.167)"
           id="g62"><path
             id="path64"
             style="fill:none;stroke:#000000;stroke-width:1;stroke-linecap:butt;stroke-linejoin:miter;stroke-miterlimit:10;stroke-dasharray:none;stroke-opacity:1"
             d="m 0,0 c -4.15,-0.439 -7.52,-1.774 -7.52,-5.422 0,-2.962 3.142,-5.113 7.5,-5.113 4.871,0 8.636,4.548 8.636,8.973 v 4.19 C 7.236,0.313 2.263,0.23 0,0 Z M 9.129,4.192 V -5.945 l 0.329,-1.983 c 0.286,-1.751 0.675,-2.48 1.25,-2.502 l 2.201,0.21 0.043,-0.422 -2.244,-0.311 H 10.69 c -1.01,0 -1.481,1.255 -1.75,2.942 -0.1,0.645 -0.324,1.879 -0.324,2.044 v 0.46 c 0,0.376 -0.065,0.563 -0.146,0.563 -0.081,0 -0.186,-0.147 -0.308,-0.438 -1.42,-3.087 -4.484,-5.571 -8.182,-5.571 -4.644,0 -8.018,2.315 -8.018,5.531 0,4.005 3.806,5.401 7.998,5.84 2.548,0.27 7.79,0.458 8.549,2.981 0.065,0.232 0.107,0.46 0.107,0.671 v 0.122 c -0.022,3.651 -2.551,6.342 -6.188,6.342 -4.111,0 -7.439,-1.855 -7.439,-4.151 0,-0.273 -0.167,-0.439 -0.434,-0.439 -0.268,0 -0.433,0.166 -0.433,0.439 0,2.525 3.699,4.571 8.241,4.571 3.928,0 6.766,-2.837 6.766,-6.762 z" /></g><g
           transform="translate(107.6416,90.4873)"
           id="g66"><path
             id="path68"
             style="fill:#000000;fill-opacity:1;fill-rule:nonzero;stroke:none"
             d="m 0,0 c -0.309,0 -0.514,0.213 -0.514,0.503 0,1.606 -0.659,2.71 -2.382,2.71 -4.133,0 -7.218,-4.589 -7.218,-9.804 v -10.116 c 0,-0.605 0.269,-1.148 3.085,-1.148 h 1.132 v -0.312 h -8.635 v 0.312 h 0.826 c 2.814,0 3.082,0.543 3.082,1.148 V 2.17 c 0,0.773 -0.575,1.043 -2.158,1.043 h -0.516 v 0.314 h 0.516 l 2.668,0.063 v -6.884 c 0.99,3.878 3.706,6.927 7.218,6.927 1.914,0 3.414,-1.276 3.414,-3.13 C 0.518,0.213 0.313,0 0,0" /></g><g
           transform="translate(107.6416,90.4873)"
           id="g70"><path
             id="path72"
             style="fill:none;stroke:#000000;stroke-width:1;stroke-linecap:butt;stroke-linejoin:miter;stroke-miterlimit:10;stroke-dasharray:none;stroke-opacity:1"
             d="m 0,0 c -0.309,0 -0.514,0.213 -0.514,0.503 0,1.606 -0.659,2.71 -2.382,2.71 -4.133,0 -7.218,-4.589 -7.218,-9.804 v -10.116 c 0,-0.605 0.269,-1.148 3.085,-1.148 h 1.132 v -0.312 h -8.635 v 0.312 h 0.826 c 2.814,0 3.082,0.543 3.082,1.148 V 2.17 c 0,0.773 -0.575,1.043 -2.158,1.043 h -0.516 v 0.314 h 0.516 l 2.668,0.063 v -6.884 c 0.99,3.878 3.706,6.927 7.218,6.927 1.914,0 3.414,-1.276 3.414,-3.13 C 0.518,0.213 0.313,0 0,0 Z" /></g><g
           transform="translate(117.1865,72.6318)"
           id="g74"><path
             id="path76"
             style="fill:#000000;fill-opacity:1;fill-rule:nonzero;stroke:none"
             d="m 0,0 h 0.721 v -0.312 h -8.22 V 0 h 0.823 c 2.815,0 3.083,0.544 3.083,1.148 v 18.878 c 0,0.772 -0.576,1.043 -2.159,1.043 h -0.516 v 0.313 h 0.516 l 2.671,0.063 V 1.148 C -3.081,0.544 -2.813,0 0,0" /></g><g
           transform="translate(117.1865,72.6318)"
           id="g78"><path
             id="path80"
             style="fill:none;stroke:#000000;stroke-width:1;stroke-linecap:butt;stroke-linejoin:miter;stroke-miterlimit:10;stroke-dasharray:none;stroke-opacity:1"
             d="m 0,0 h 0.721 v -0.312 h -8.22 V 0 h 0.823 c 2.815,0 3.083,0.544 3.083,1.148 v 18.878 c 0,0.772 -0.576,1.043 -2.159,1.043 h -0.516 v 0.313 h 0.516 l 2.671,0.063 V 1.148 C -3.081,0.544 -2.813,0 0,0 Z" /></g><g
           transform="translate(128.3154,83.167)"
           id="g82"><path
             id="path84"
             style="fill:#000000;fill-opacity:1;fill-rule:nonzero;stroke:none"
             d="m 0,0 c -4.15,-0.439 -7.521,-1.774 -7.521,-5.422 0,-2.962 3.142,-5.113 7.5,-5.113 4.871,0 8.633,4.548 8.633,8.973 v 4.19 C 7.239,0.313 2.264,0.23 0,0 M 9.129,4.192 V -5.945 l 0.327,-1.983 c 0.289,-1.751 0.677,-2.48 1.253,-2.502 l 2.197,0.21 0.045,-0.422 -2.242,-0.311 h -0.021 c -1.008,0 -1.479,1.255 -1.748,2.942 -0.1,0.645 -0.328,1.879 -0.328,2.044 v 0.46 c 0,0.376 -0.06,0.563 -0.142,0.563 -0.083,0 -0.185,-0.147 -0.309,-0.438 -1.421,-3.087 -4.483,-5.571 -8.182,-5.571 -4.644,0 -8.016,2.315 -8.016,5.531 0,4.005 3.803,5.401 7.998,5.84 2.547,0.27 7.788,0.458 8.548,2.981 0.063,0.232 0.103,0.46 0.103,0.671 v 0.122 c -0.019,3.651 -2.547,6.342 -6.184,6.342 -4.112,0 -7.443,-1.855 -7.443,-4.151 0,-0.273 -0.165,-0.439 -0.432,-0.439 -0.269,0 -0.433,0.166 -0.433,0.439 0,2.525 3.701,4.571 8.242,4.571 3.928,0 6.767,-2.837 6.767,-6.762" /></g><g
           transform="translate(128.3154,83.167)"
           id="g86"><path
             id="path88"
             style="fill:none;stroke:#000000;stroke-width:1;stroke-linecap:butt;stroke-linejoin:miter;stroke-miterlimit:10;stroke-dasharray:none;stroke-opacity:1"
             d="m 0,0 c -4.15,-0.439 -7.521,-1.774 -7.521,-5.422 0,-2.962 3.142,-5.113 7.5,-5.113 4.871,0 8.633,4.548 8.633,8.973 v 4.19 C 7.239,0.313 2.264,0.23 0,0 Z M 9.129,4.192 V -5.945 l 0.327,-1.983 c 0.289,-1.751 0.677,-2.48 1.253,-2.502 l 2.197,0.21 0.045,-0.422 -2.242,-0.311 h -0.021 c -1.008,0 -1.479,1.255 -1.748,2.942 -0.1,0.645 -0.328,1.879 -0.328,2.044 v 0.46 c 0,0.376 -0.06,0.563 -0.142,0.563 -0.083,0 -0.185,-0.147 -0.309,-0.438 -1.421,-3.087 -4.483,-5.571 -8.182,-5.571 -4.644,0 -8.016,2.315 -8.016,5.531 0,4.005 3.803,5.401 7.998,5.84 2.547,0.27 7.788,0.458 8.548,2.981 0.063,0.232 0.103,0.46 0.103,0.671 v 0.122 c -0.019,3.651 -2.547,6.342 -6.184,6.342 -4.112,0 -7.443,-1.855 -7.443,-4.151 0,-0.273 -0.165,-0.439 -0.432,-0.439 -0.269,0 -0.433,0.166 -0.433,0.439 0,2.525 3.701,4.571 8.242,4.571 3.928,0 6.767,-2.837 6.767,-6.762 z" /></g><g
           id="g90"><g
             id="g92" /><g
             id="g104"><g
               style="opacity:0.80000299"
               id="g102"
               clip-path="url(#clipPath96)"><g
                 id="g100"
                 transform="translate(132.2891,104.8403)"><path
                   id="path98"
                   style="fill:#91f9ec;fill-opacity:1;fill-rule:nonzero;stroke:none"
                   d="M 0,0 -3.971,3.619 -4.49,8.672 Z" /></g></g></g></g><g
           id="g106"><g
             id="g108" /><g
             id="g120"><g
               style="opacity:0.80000299"
               id="g118"
               clip-path="url(#clipPath112)"><g
                 id="g116"
                 transform="translate(118.8008,117.1226)"><path
                   id="path114"
                   style="fill:#91f9ec;fill-opacity:1;fill-rule:nonzero;stroke:none"
                   d="M 0,0 4.085,-3.722 8.998,-3.61 Z" /></g></g></g></g><g
           id="g122"><g
             id="g124" /><g
             id="g136"><g
               style="opacity:0.80000299"
               id="g134"
               clip-path="url(#clipPath128)"><g
                 id="g132"
                 transform="translate(118.8008,117.1226)"><path
                   id="path130"
                   style="fill:#91f9ec;fill-opacity:1;fill-rule:nonzero;stroke:none"
                   d="M 0,0 4.085,-3.722 3.771,-1.516 Z" /></g></g></g></g><g
           id="g138"><g
             id="g140" /><g
             id="g152"><g
               style="opacity:0.80000299"
               id="g150"
               clip-path="url(#clipPath144)"><g
                 id="g148"
                 transform="translate(132.25,104.8677)"><path
                   id="path146"
                   style="fill:#91f9ec;fill-opacity:1;fill-rule:nonzero;stroke:none"
                   d="M 0,0 -4.086,3.724 -1.89,3.641 Z" /></g></g></g></g><g
           id="g154"><g
             id="g156" /><g
             id="g168"><g
               style="opacity:0.80000299"
               id="g166"
               clip-path="url(#clipPath160)"><g
                 id="g164"
                 transform="translate(135.6016,101.8223)"><path
                   id="path162"
                   style="fill:#91f9ec;fill-opacity:1;fill-rule:nonzero;stroke:none"
                   d="M 0,0 -2.24,8.435 -3.352,3.045 Z" /></g></g></g></g><g
           id="g170"><g
             id="g172" /><g
             id="g184"><g
               style="opacity:0.80000299"
               id="g182"
               clip-path="url(#clipPath176)"><g
                 id="g180"
                 transform="translate(135.0898,109.123)"><path
                   id="path178"
                   style="fill:#91f9ec;fill-opacity:1;fill-rule:nonzero;stroke:none"
                   d="M 0,0 -1.052,2.976 -1.729,1.134 0.512,-7.301 Z" /></g></g></g></g><g
           id="g186"><g
             id="g188" /><g
             id="g200"><g
               style="opacity:0.80000299"
               id="g198"
               clip-path="url(#clipPath192)"><g
                 id="g196"
                 transform="translate(135.1475,111.0791)"><path
                   id="path194"
                   style="fill:#91f9ec;fill-opacity:1;fill-rule:nonzero;stroke:none"
                   d="m 0,0 -1.109,1.02 1.051,-2.976 z" /></g></g></g></g><g
           id="g202"><g
             id="g204" /><g
             id="g216"><g
               style="opacity:0.80000299"
               id="g214"
               clip-path="url(#clipPath208)"><g
                 id="g212"
                 transform="translate(115.4629,120.1875)"><path
                   id="path210"
                   style="fill:#91f9ec;fill-opacity:1;fill-rule:nonzero;stroke:none"
                   d="M 0,0 8.55,-1.412 3.357,-3.071 Z" /></g></g></g></g><g
           id="g218"><g
             id="g220" /><g
             id="g232"><g
               style="opacity:0.80000299"
               id="g230"
               clip-path="url(#clipPath224)"><g
                 id="g228"
                 transform="translate(122.7295,120.4346)"><path
                   id="path226"
                   style="fill:#91f9ec;fill-opacity:1;fill-rule:nonzero;stroke:none"
                   d="m 0,0 3.017,-0.779 -1.734,-0.88 -8.55,1.412 z" /></g></g></g></g><g
           id="g234"><g
             id="g236" /><g
             id="g248"><g
               style="opacity:0.80000299"
               id="g246"
               clip-path="url(#clipPath240)"><g
                 id="g244"
                 transform="translate(124.6123,120.6816)"><path
                   id="path242"
                   style="fill:#91f9ec;fill-opacity:1;fill-rule:nonzero;stroke:none"
                   d="m 0,0 1.134,-1.026 -3.017,0.779 z" /></g></g></g></g><g
           id="g250"><g
             id="g252" /><g
             id="g264"><g
               style="opacity:0.80000299"
               id="g262"
               clip-path="url(#clipPath256)"><g
                 id="g260"
                 transform="translate(125.7461,119.6553)"><path
                   id="path258"
                   style="fill:#91f9ec;fill-opacity:1;fill-rule:nonzero;stroke:none"
                   d="m 0,0 1.491,-4.416 -2.023,3.364 -1.201,0.172 z" /></g></g></g></g><g
           id="g266"><g
             id="g268" /><g
             id="g280"><g
               style="opacity:0.80000299"
               id="g278"
               clip-path="url(#clipPath272)"><g
                 id="g276"
                 transform="translate(134.04,112.1021)"><path
                   id="path274"
                   style="fill:#91f9ec;fill-opacity:1;fill-rule:nonzero;stroke:none"
                   d="m 0,0 -4.489,1.034 3.512,-1.682 0.302,-1.193 z" /></g></g></g></g><g
           id="g282"><g
             id="g284" /><g
             id="g296"><g
               style="opacity:0.80000299"
               id="g294"
               clip-path="url(#clipPath288)"><g
                 id="g292"
                 transform="translate(122.624,107.6719)"><path
                   id="path290"
                   style="fill:#91f9ec;fill-opacity:1;fill-rule:nonzero;stroke:none"
                   d="m 0,0 -4.246,-0.941 -3.678,-7.97 7.331,4.64 z" /></g></g></g></g><g
           id="g298"><g
             id="g300" /><g
             id="g312"><g
               style="opacity:0.80000299"
               id="g310"
               clip-path="url(#clipPath304)"><g
                 id="g308"
                 transform="translate(120.4063,105.1753)"><path
                   id="path306"
                   style="fill:#91f9ec;fill-opacity:1;fill-rule:nonzero;stroke:none"
                   d="m 0,0 -3.06,-0.677 -2.646,-5.738 5.278,3.339 z" /></g></g></g></g><g
           id="g314"><g
             id="g316" /><g
             id="g328"><g
               style="opacity:0.80000299"
               id="g326"
               clip-path="url(#clipPath320)"><g
                 id="g324"
                 transform="translate(119.457,104.1064)"><path
                   id="path322"
                   style="fill:#91f9ec;fill-opacity:1;fill-rule:nonzero;stroke:none"
                   d="m 0,0 -2.551,-0.564 -2.206,-4.782 4.398,2.784 z" /></g></g></g></g><g
           id="g330"><g
             id="g332" /><g
             id="g344"><g
               style="opacity:0.80000299"
               id="g342"
               clip-path="url(#clipPath336)"><g
                 id="g340"
                 transform="translate(128.3184,108.4595)"><path
                   id="path338"
                   style="fill:#91f9ec;fill-opacity:1;fill-rule:nonzero;stroke:none"
                   d="m 0,0 3.971,-3.619 -9.665,2.831 z" /></g></g></g></g><g
           id="g346"><g
             id="g348" /><g
             id="g360"><g
               style="opacity:0.80000299"
               id="g358"
               clip-path="url(#clipPath352)"><g
                 id="g356"
                 transform="translate(132.2891,104.8403)"><path
                   id="path354"
                   style="fill:#91f9ec;fill-opacity:1;fill-rule:nonzero;stroke:none"
                   d="m 0,0 -10.258,-1.439 0.593,4.271 z" /></g></g></g></g><g
           id="g362"><g
             id="g364" /><g
             id="g376"><g
               style="opacity:0.80000299"
               id="g374"
               clip-path="url(#clipPath368)"><g
                 id="g372"
                 transform="translate(132.2891,104.8403)"><path
                   id="path370"
                   style="fill:#91f9ec;fill-opacity:1;fill-rule:nonzero;stroke:none"
                   d="m 0,0 -7.197,-2.663 -3.061,1.224 z" /></g></g></g></g><g
           id="g378"><g
             id="g380" /><g
             id="g392"><g
               style="opacity:0.80000299"
               id="g390"
               clip-path="url(#clipPath384)"><g
                 id="g388"
                 transform="translate(122.0313,103.4014)"><path
                   id="path386"
                   style="fill:#91f9ec;fill-opacity:1;fill-rule:nonzero;stroke:none"
                   d="M 0,0 4.125,-3.083 -7.331,-4.641 Z" /></g></g></g></g><g
           id="g394"><g
             id="g396" /><g
             id="g408"><g
               style="opacity:0.80000299"
               id="g406"
               clip-path="url(#clipPath400)"><g
                 id="g404"
                 transform="translate(123.3662,102.4146)"><path
                   id="path402"
                   style="fill:#91f9ec;fill-opacity:1;fill-rule:nonzero;stroke:none"
                   d="m 0,0 -0.646,-2.563 -8.02,-1.091 z" /></g></g></g></g><g
           id="g410"><g
             id="g412" /><g
             id="g424"><g
               style="opacity:0.80000299"
               id="g422"
               clip-path="url(#clipPath416)"><g
                 id="g420"
                 transform="translate(122.8916,113.4058)"><path
                   id="path418"
                   style="fill:#91f9ec;fill-opacity:1;fill-rule:nonzero;stroke:none"
                   d="m 0,0 -4.071,3.71 3.803,-9.444 z" /></g></g></g></g><g
           id="g426"><g
             id="g428" /><g
             id="g440"><g
               style="opacity:0.80000299"
               id="g438"
               clip-path="url(#clipPath432)"><g
                 id="g436"
                 transform="translate(118.8203,117.1162)"><path
                   id="path434"
                   style="fill:#91f9ec;fill-opacity:1;fill-rule:nonzero;stroke:none"
                   d="m 0,0 -0.442,-10.386 4.246,0.942 z" /></g></g></g></g><g
           id="g442"><g
             id="g444" /><g
             id="g456"><g
               style="opacity:0.80000299"
               id="g454"
               clip-path="url(#clipPath448)"><g
                 id="g452"
                 transform="translate(118.8203,117.1162)"><path
                   id="path450"
                   style="fill:#91f9ec;fill-opacity:1;fill-rule:nonzero;stroke:none"
                   d="m 0,0 -1.848,-7.221 1.406,-3.165 z" /></g></g></g></g><g
           id="g458"><g
             id="g460" /><g
             id="g472"><g
               style="opacity:0.80000299"
               id="g470"
               clip-path="url(#clipPath464)"><g
                 id="g468"
                 transform="translate(118.3779,106.7305)"><path
                   id="path466"
                   style="fill:#91f9ec;fill-opacity:1;fill-rule:nonzero;stroke:none"
                   d="M 0,0 -3.143,3.255 -3.678,-7.97 Z" /></g></g></g></g><g
           id="g474"><g
             id="g476" /><g
             id="g488"><g
               style="opacity:0.80000299"
               id="g486"
               clip-path="url(#clipPath480)"><g
                 id="g484"
                 transform="translate(132.2773,104.853)"><path
                   id="path482"
                   style="fill:#91f9ec;fill-opacity:1;fill-rule:nonzero;stroke:none"
                   d="M 0,0 3.324,-3.031 -6.121,-4.534 Z" /></g></g></g></g><g
           id="g490"><g
             id="g492" /><g
             id="g504"><g
               style="opacity:0.80000299"
               id="g502"
               clip-path="url(#clipPath496)"><g
                 id="g500"
                 transform="translate(118.8203,117.1162)"><path
                   id="path498"
                   style="fill:#91f9ec;fill-opacity:1;fill-rule:nonzero;stroke:none"
                   d="M 0,0 -3.357,3.071 -3.585,-7.13 Z" /></g></g></g></g><g
           id="g506"><g
             id="g508" /><g
             id="g520"><g
               style="opacity:0.80000299"
               id="g518"
               clip-path="url(#clipPath512)"><g
                 id="g516"
                 transform="translate(131.0312,113.9072)"><path
                   id="path514"
                   style="fill:#91f9ec;fill-opacity:1;fill-rule:nonzero;stroke:none"
                   d="m 0,0 3.009,-1.805 -6.241,1.41 z" /></g></g></g></g><g
           id="g522"><g
             id="g524" /><g
             id="g536"><g
               style="opacity:0.80000299"
               id="g534"
               clip-path="url(#clipPath528)"><g
                 id="g532"
                 transform="translate(127.7813,116.8691)"><path
                   id="path530"
                   style="fill:#91f9ec;fill-opacity:1;fill-rule:nonzero;stroke:none"
                   d="M 0,0 -2.035,2.786 0.018,-3.356 Z" /></g></g></g></g><g
           id="g538"><g
             id="g540" /><g
             id="g552"><g
               style="opacity:0.80000299"
               id="g550"
               clip-path="url(#clipPath544)"><g
                 id="g548"
                 transform="translate(128.6875,116.9814)"><path
                   id="path546"
                   style="fill:#91f9ec;fill-opacity:1;fill-rule:nonzero;stroke:none"
                   d="M 0,0 2.369,-2.158 -0.889,-3.469 Z" /></g></g></g></g><g
           id="g554"><g
             id="g556" /><g
             id="g568"><g
               style="opacity:0.80000299"
               id="g566"
               clip-path="url(#clipPath560)"><g
                 id="g564"
                 transform="translate(115.4902,120.1875)"><path
                   id="path562"
                   style="fill:#91f9ec;fill-opacity:1;fill-rule:nonzero;stroke:none"
                   d="m 0,0 1.85,-6.013 1.48,2.942 z" /></g></g></g></g><g
           id="g570"><g
             id="g572" /><g
             id="g584"><g
               style="opacity:0.80000299"
               id="g582"
               clip-path="url(#clipPath576)"><g
                 id="g580"
                 transform="translate(135.5889,101.834)"><path
                   id="path578"
                   style="fill:#91f9ec;fill-opacity:1;fill-rule:nonzero;stroke:none"
                   d="m 0,0 -5.88,1.115 2.531,1.938 z" /></g></g></g></g><g
           id="g586"><g
             id="g588" /><g
             id="g600"><g
               style="opacity:0.80000299"
               id="g598"
               clip-path="url(#clipPath592)"><g
                 id="g596"
                 transform="translate(115.2354,109.9858)"><path
                   id="path594"
                   style="fill:#91f9ec;fill-opacity:1;fill-rule:nonzero;stroke:none"
                   d="M 0,0 3.523,3.121 3.585,7.13 Z" /></g></g></g></g><g
           id="g602"><g
             id="g604" /><g
             id="g616"><g
               style="opacity:0.80000299"
               id="g614"
               clip-path="url(#clipPath608)"><g
                 id="g612"
                 transform="translate(126.1563,100.3188)"><path
                   id="path610"
                   style="fill:#91f9ec;fill-opacity:1;fill-rule:nonzero;stroke:none"
                   d="M 0,0 2.059,3.967 6.121,4.534 Z" /></g></g></g></g><g
           id="g618"><g
             id="g620" /><g
             id="g632"><g
               style="opacity:0.80000299"
               id="g630"
               clip-path="url(#clipPath624)"><g
                 id="g628"
                 transform="translate(118.3613,106.6934)"><path
                   id="path626"
                   style="fill:#91f9ec;fill-opacity:1;fill-rule:nonzero;stroke:none"
                   d="M 0,0 2.031,4.539 0.459,10.423 Z" /></g></g></g></g><g
           id="g634"><g
             id="g636" /><g
             id="g648"><g
               style="opacity:0.80000299"
               id="g646"
               clip-path="url(#clipPath640)"><g
                 id="g644"
                 transform="translate(122.0313,103.4014)"><path
                   id="path642"
                   style="fill:#91f9ec;fill-opacity:1;fill-rule:nonzero;stroke:none"
                   d="M 0,0 4.622,2.251 10.246,1.452 Z" /></g></g></g></g><g
           id="g650"><g
             id="g652" /><g
             id="g664"><g
               style="opacity:0.80000299"
               id="g662"
               clip-path="url(#clipPath656)"><g
                 id="g660"
                 transform="translate(127.7988,113.5127)"><path
                   id="path658"
                   style="fill:#91f9ec;fill-opacity:1;fill-rule:nonzero;stroke:none"
                   d="M 0,0 -2.243,-2.535 0.52,-5.053 Z" /></g></g></g></g><g
           id="g666"><g
             id="g668" /><g
             id="g680"><g
               style="opacity:0.80000299"
               id="g678"
               clip-path="url(#clipPath672)"><g
                 id="g676"
                 transform="translate(122.8916,113.4058)"><path
                   id="path674"
                   style="fill:#91f9ec;fill-opacity:1;fill-rule:nonzero;stroke:none"
                   d="M 0,0 2.664,-2.428 4.907,0.107 Z" /></g></g></g></g><g
           id="g682"><g
             id="g684" /><g
             id="g696"><g
               style="opacity:0.80000299"
               id="g694"
               clip-path="url(#clipPath688)"><g
                 id="g692"
                 transform="translate(122.6279,107.6699)"><path
                   id="path690"
                   style="fill:#91f9ec;fill-opacity:1;fill-rule:nonzero;stroke:none"
                   d="M 0,0 2.928,3.308 5.69,0.79 Z" /></g></g></g></g><g
           id="g698"><g
             id="g700" /><g
             id="g712"><g
               style="opacity:0.80000299"
               id="g710"
               clip-path="url(#clipPath704)"><g
                 id="g708"
                 transform="translate(122.8916,113.4058)"><path
                   id="path706"
                   style="fill:#91f9ec;fill-opacity:1;fill-rule:nonzero;stroke:none"
                   d="M 0,0 2.664,-2.428 -0.264,-5.736 Z" /></g></g></g></g><g
           id="g714"><g
             id="g716" /><g
             id="g728"><g
               style="opacity:0.80000299"
               id="g726"
               clip-path="url(#clipPath720)"><g
                 id="g724"
                 transform="translate(126.9004,112.5005)"><path
                   id="path722"
                   style="fill:#91f9ec;fill-opacity:1;fill-rule:nonzero;stroke:none"
                   d="M 0,0 -1.345,-1.522 0.312,-3.034 Z" /></g></g></g></g><g
           id="g730"><g
             id="g732" /><g
             id="g744"><g
               style="opacity:0.80000299"
               id="g742"
               clip-path="url(#clipPath736)"><g
                 id="g740"
                 transform="translate(123.957,112.4346)"><path
                   id="path738"
                   style="fill:#91f9ec;fill-opacity:1;fill-rule:nonzero;stroke:none"
                   d="M 0,0 1.599,-1.457 2.943,0.066 Z" /></g></g></g></g><g
           id="g746"><g
             id="g748" /><g
             id="g760"><g
               style="opacity:0.80000299"
               id="g758"
               clip-path="url(#clipPath752)"><g
                 id="g756"
                 transform="translate(122.6816,107.73)"><path
                   id="path754"
                   style="fill:#91f9ec;fill-opacity:1;fill-rule:nonzero;stroke:none"
                   d="M 0,0 2.874,3.248 4.531,1.736 Z" /></g></g></g></g><g
           id="g762"><g
             id="g764" /><g
             id="g776"><g
               style="opacity:0.80000299"
               id="g774"
               clip-path="url(#clipPath768)"><g
                 id="g772"
                 transform="translate(123.957,112.4346)"><path
                   id="path770"
                   style="fill:#91f9ec;fill-opacity:1;fill-rule:nonzero;stroke:none"
                   d="M 0,0 1.599,-1.457 -1.35,-4.787 Z" /></g></g></g></g><g
           id="g778"><g
             id="g780" /><g
             id="g792"><g
               style="opacity:0.80000299"
               id="g790"
               clip-path="url(#clipPath784)"><g
                 id="g788"
                 transform="translate(132.2598,104.8696)"><path
                   id="path786"
                   style="fill:#91f9ec;fill-opacity:1;fill-rule:nonzero;stroke:none"
                   d="m 0,0 -4.493,8.672 4.115,-5.468 1.48,2.184 z" /></g></g></g></g><g
           id="g794"><g
             id="g796" /><g
             id="g808"><g
               style="opacity:0.80000299"
               id="g806"
               clip-path="url(#clipPath800)"><g
                 id="g804"
                 transform="translate(118.8203,117.1162)"><path
                   id="path802"
                   style="fill:#91f9ec;fill-opacity:1;fill-rule:nonzero;stroke:none"
                   d="m 0,0 8.979,-3.604 -5.767,3.539 1.98,1.724 z" /></g></g></g></g><g
           id="g810"><g
             id="g812" /><g
             id="g824"><g
               style="opacity:0.80000299"
               id="g822"
               clip-path="url(#clipPath816)"><g
                 id="g820"
                 transform="translate(115.4629,120.1875)"><path
                   id="path818"
                   style="fill:#91f9ec;fill-opacity:1;fill-rule:nonzero;stroke:none"
                   d="M 0,0 6.588,-3.13 3.357,-3.071 Z" /></g></g></g></g><g
           id="g826"><g
             id="g828" /><g
             id="g840"><g
               style="opacity:0.80000299"
               id="g838"
               clip-path="url(#clipPath832)"><g
                 id="g836"
                 transform="translate(135.6084,101.8286)"><path
                   id="path834"
                   style="fill:#91f9ec;fill-opacity:1;fill-rule:nonzero;stroke:none"
                   d="M 0,0 -3.75,6.256 -3.368,3.058 Z" /></g></g></g></g><g
           id="g842"><g
             id="g844" /><g
             id="g856"><g
               style="opacity:0.80000299"
               id="g854"
               clip-path="url(#clipPath848)"><g
                 id="g852"
                 transform="translate(133.0635,111.4541)"><path
                   id="path850"
                   style="fill:#91f9ec;fill-opacity:1;fill-rule:nonzero;stroke:none"
                   d="m 0,0 -3.419,1.648 2.25,-5.077 -0.337,3.255 z" /></g></g></g></g><g
           id="g858"><g
             id="g860" /><g
             id="g872"><g
               style="opacity:0.80000299"
               id="g870"
               clip-path="url(#clipPath864)"><g
                 id="g868"
                 transform="translate(129.6445,113.1025)"><path
                   id="path866"
                   style="fill:#91f9ec;fill-opacity:1;fill-rule:nonzero;stroke:none"
                   d="M 0,0 -1.846,0.41 2.25,-5.078 Z" /></g></g></g></g><g
           id="g874"><g
             id="g876" /><g
             id="g888"><g
               style="opacity:0.80000299"
               id="g886"
               clip-path="url(#clipPath880)"><g
                 id="g884"
                 transform="translate(127.1973,115.332)"><path
                   id="path882"
                   style="fill:#91f9ec;fill-opacity:1;fill-rule:nonzero;stroke:none"
                   d="M 0,0 0.602,-1.819 -5.192,1.742 Z" /></g></g></g></g><g
           id="g890"><g
             id="g892" /><g
             id="g904"><g
               style="opacity:0.80000299"
               id="g902"
               clip-path="url(#clipPath896)"><g
                 id="g900"
                 transform="translate(125.2158,118.6055)"><path
                   id="path898"
                   style="fill:#91f9ec;fill-opacity:1;fill-rule:nonzero;stroke:none"
                   d="m 0,0 -0.007,-1.538 -3.158,-0.01 1.962,1.718 z" /></g></g></g></g><g
           id="g906"><g
             id="g908" /><g
             id="g920"><g
               style="opacity:0.80000299"
               id="g918"
               clip-path="url(#clipPath912)"><g
                 id="g916"
                 transform="translate(133.0801,111.4746)"><path
                   id="path914"
                   style="fill:#91f9ec;fill-opacity:1;fill-rule:nonzero;stroke:none"
                   d="m 0,0 -1.522,-0.194 0.324,-3.207 1.496,2.204 z" /></g></g></g></g><g
           id="g922"><g
             id="g924" /><g
             id="g936"><g
               style="opacity:0.80000299"
               id="g934"
               clip-path="url(#clipPath928)"><g
                 id="g932"
                 transform="translate(125.2158,118.6055)"><path
                   id="path930"
                   style="fill:#91f9ec;fill-opacity:1;fill-rule:nonzero;stroke:none"
                   d="m 0,0 1.981,-3.273 -5.146,1.725 3.158,0.01 z" /></g></g></g></g><g
           id="g938"><g
             id="g940" /><g
             id="g952"><g
               style="opacity:0.80000299"
               id="g950"
               clip-path="url(#clipPath944)"><g
                 id="g948"
                 transform="translate(127.7988,113.5127)"><path
                   id="path946"
                   style="fill:#91f9ec;fill-opacity:1;fill-rule:nonzero;stroke:none"
                   d="M 0,0 0.889,3.469 -2.053,6.143 -0.018,3.356 Z" /></g></g></g></g><g
           id="g954"><g
             id="g956" /><g
             id="g968"><g
               style="opacity:0.80000299"
               id="g966"
               clip-path="url(#clipPath960)"><g
                 id="g964"
                 transform="translate(127.7988,113.5127)"><path
                   id="path962"
                   style="fill:#91f9ec;fill-opacity:1;fill-rule:nonzero;stroke:none"
                   d="m 0,0 3.251,1.314 2.99,-2.725 -3.006,1.8 z" /></g></g></g></g><g
           id="g970"><g
             id="g972" /><g
             id="g984"><g
               style="opacity:0.80000299"
               id="g982"
               clip-path="url(#clipPath976)"><g
                 id="g980"
                 transform="translate(117.3506,107.8955)"><path
                   id="path978"
                   style="fill:#91f9ec;fill-opacity:1;fill-rule:nonzero;stroke:none"
                   d="M 0,0 -2.275,-0.913 -2.65,-9.135 Z" /></g></g></g></g><g
           id="g986"><g
             id="g988" /><g
             id="g1000"><g
               style="opacity:0.80000299"
               id="g998"
               clip-path="url(#clipPath992)"><g
                 id="g996"
                 transform="translate(118.3779,106.7305)"><path
                   id="path994"
                   style="fill:#91f9ec;fill-opacity:1;fill-rule:nonzero;stroke:none"
                   d="m 0,0 -3.143,3.255 2.274,2.03 -0.536,-2.12 z" /></g></g></g></g><g
           id="g1002"><g
             id="g1004" /><g
             id="g1016"><g
               style="opacity:0.80000299"
               id="g1014"
               clip-path="url(#clipPath1008)"><g
                 id="g1012"
                 transform="translate(127.5938,103.0977)"><path
                   id="path1010"
                   style="fill:#91f9ec;fill-opacity:1;fill-rule:nonzero;stroke:none"
                   d="m 0,0 -1.437,-2.779 -4.125,3.083 3.06,-1.224 z" /></g></g></g></g><g
           id="g1018"><g
             id="g1020" /><g
             id="g1032"><g
               style="opacity:0.80000299"
               id="g1030"
               clip-path="url(#clipPath1024)"><g
                 id="g1028"
                 transform="translate(122.0313,103.4014)"><path
                   id="path1026"
                   style="fill:#91f9ec;fill-opacity:1;fill-rule:nonzero;stroke:none"
                   d="M 0,0 2.658,3.691 2.615,1.282 Z" /></g></g></g></g><g
           id="g1034"><g
             id="g1036" /><g
             id="g1048"><g
               style="opacity:0.80000299"
               id="g1046"
               clip-path="url(#clipPath1040)"><g
                 id="g1044"
                 transform="translate(118.4229,106.7505)"><path
                   id="path1042"
                   style="fill:#91f9ec;fill-opacity:1;fill-rule:nonzero;stroke:none"
                   d="M 0,0 3.53,2.838 1.166,2.708 Z" /></g></g></g></g><g
           transform="translate(46.5317,53.0156)"
           id="g1050"><path
             id="path1052"
             style="fill:#000000;fill-opacity:1;fill-rule:nonzero;stroke:none"
             d="m 0,0 c -0.054,0.121 -0.092,0.182 -0.118,0.182 -0.032,0 -0.08,-0.084 -0.143,-0.252 l -0.843,-1.929 -0.728,-1.623 c -0.021,-0.05 -0.03,-0.093 -0.03,-0.13 0,-0.04 0.014,-0.075 0.045,-0.106 0.03,-0.032 0.101,-0.063 0.213,-0.095 0.114,-0.03 0.187,-0.065 0.215,-0.096 0.029,-0.031 0.042,-0.067 0.042,-0.106 0,-0.123 -0.078,-0.185 -0.235,-0.185 -0.038,0 -0.127,0.012 -0.271,0.033 -0.144,0.023 -0.261,0.034 -0.358,0.034 -0.097,0 -0.195,-0.01 -0.298,-0.029 -0.104,-0.019 -0.178,-0.03 -0.226,-0.03 -0.066,0 -0.119,0.018 -0.161,0.053 -0.042,0.034 -0.063,0.075 -0.063,0.121 0,0.068 0.012,0.113 0.04,0.134 0.025,0.021 0.073,0.036 0.143,0.047 0.205,0.035 0.346,0.111 0.422,0.232 0.078,0.118 0.277,0.543 0.597,1.271 l 0.957,2.131 c 0.232,0.51 0.383,0.849 0.451,1.016 0.066,0.167 0.099,0.297 0.099,0.389 0,0.032 -0.011,0.088 -0.035,0.171 -0.022,0.082 -0.033,0.142 -0.033,0.18 0,0.075 0.04,0.114 0.12,0.114 0.135,0 0.242,-0.055 0.325,-0.169 C 0.207,1.244 0.318,1.032 0.455,0.719 L 1.547,-1.752 C 1.942,-2.651 2.194,-3.207 2.3,-3.42 c 0.106,-0.213 0.191,-0.351 0.259,-0.413 0.068,-0.062 0.148,-0.106 0.242,-0.136 0.095,-0.029 0.158,-0.056 0.194,-0.085 0.033,-0.027 0.051,-0.074 0.051,-0.139 0,-0.093 -0.085,-0.139 -0.25,-0.139 -0.055,0 -0.154,0.01 -0.303,0.025 -0.146,0.018 -0.292,0.027 -0.436,0.027 -0.145,0 -0.296,-0.01 -0.452,-0.03 -0.157,-0.02 -0.266,-0.03 -0.322,-0.03 -0.089,0 -0.162,0.015 -0.214,0.046 -0.052,0.03 -0.078,0.072 -0.078,0.126 0,0.045 0.014,0.083 0.047,0.112 0.031,0.029 0.115,0.049 0.257,0.063 0.139,0.014 0.228,0.044 0.268,0.089 0.042,0.046 0.062,0.102 0.062,0.172 0,0.072 -0.076,0.275 -0.224,0.607 -0.151,0.332 -0.246,0.509 -0.28,0.529 -0.038,0.021 -0.108,0.032 -0.215,0.032 h -1.759 c -0.067,0 -0.131,0.021 -0.185,0.065 -0.055,0.045 -0.083,0.096 -0.083,0.153 0,0.046 0.022,0.086 0.064,0.12 0.045,0.037 0.094,0.052 0.148,0.052 h 1.693 c 0.096,0 0.143,0.018 0.143,0.052 0,0.02 -0.019,0.072 -0.056,0.154 z" /></g><g
           transform="translate(58.7759,49.9355)"
           id="g1054"><path
             id="path1056"
             style="fill:#000000;fill-opacity:1;fill-rule:nonzero;stroke:none"
             d="m 0,0 c 0.041,0 0.076,-0.017 0.104,-0.047 0.031,-0.03 0.045,-0.057 0.045,-0.08 0,-0.093 -0.107,-0.239 -0.318,-0.44 -0.212,-0.202 -0.487,-0.374 -0.831,-0.517 -0.342,-0.144 -0.702,-0.215 -1.083,-0.215 -0.618,0 -1.151,0.134 -1.606,0.403 -0.452,0.267 -0.801,0.641 -1.043,1.121 -0.242,0.478 -0.362,0.975 -0.362,1.49 0,0.515 0.117,0.999 0.355,1.45 0.236,0.451 0.572,0.804 1.01,1.055 0.436,0.254 0.942,0.38 1.519,0.38 0.367,0 0.708,-0.048 1.019,-0.145 0.314,-0.096 0.558,-0.211 0.739,-0.349 0.179,-0.136 0.269,-0.24 0.269,-0.311 0,-0.111 -0.003,-0.211 -0.007,-0.3 -0.005,-0.09 -0.007,-0.142 -0.007,-0.162 0,-0.031 0.009,-0.08 0.025,-0.144 0.019,-0.065 0.028,-0.124 0.028,-0.179 0,-0.086 -0.053,-0.13 -0.162,-0.13 -0.033,0 -0.068,0.016 -0.101,0.047 -0.035,0.031 -0.085,0.12 -0.151,0.264 -0.139,0.309 -0.289,0.534 -0.45,0.674 -0.282,0.245 -0.675,0.366 -1.181,0.366 -0.65,0 -1.156,-0.236 -1.519,-0.709 -0.362,-0.471 -0.543,-1.083 -0.543,-1.831 0,-0.814 0.197,-1.456 0.588,-1.93 0.393,-0.473 0.92,-0.709 1.587,-0.709 0.172,0 0.44,0.058 0.807,0.173 0.365,0.114 0.728,0.337 1.086,0.667 C -0.103,-0.037 -0.042,0 0,0" /></g><g
           transform="translate(68.2637,49.9355)"
           id="g1058"><path
             id="path1060"
             style="fill:#000000;fill-opacity:1;fill-rule:nonzero;stroke:none"
             d="m 0,0 c 0.041,0 0.075,-0.017 0.104,-0.047 0.028,-0.03 0.044,-0.057 0.044,-0.08 0,-0.093 -0.105,-0.239 -0.317,-0.44 -0.212,-0.202 -0.49,-0.374 -0.832,-0.517 -0.341,-0.144 -0.704,-0.215 -1.085,-0.215 -0.614,0 -1.149,0.134 -1.603,0.403 -0.455,0.267 -0.803,0.641 -1.043,1.121 -0.243,0.478 -0.365,0.975 -0.365,1.49 0,0.515 0.12,0.999 0.356,1.45 0.238,0.451 0.574,0.804 1.01,1.055 0.438,0.254 0.944,0.38 1.518,0.38 0.37,0 0.709,-0.048 1.022,-0.145 0.311,-0.096 0.556,-0.211 0.737,-0.349 0.181,-0.136 0.27,-0.24 0.27,-0.311 0,-0.111 -0.002,-0.211 -0.008,-0.3 C -0.198,3.405 -0.2,3.353 -0.2,3.333 c 0,-0.031 0.01,-0.08 0.029,-0.144 0.019,-0.065 0.027,-0.124 0.027,-0.179 0,-0.086 -0.054,-0.13 -0.162,-0.13 -0.035,0 -0.069,0.016 -0.104,0.047 -0.032,0.031 -0.082,0.12 -0.148,0.264 C -0.699,3.5 -0.847,3.725 -1.01,3.865 -1.29,4.11 -1.686,4.231 -2.189,4.231 -2.841,4.231 -3.348,3.995 -3.708,3.522 -4.07,3.051 -4.252,2.439 -4.252,1.691 c 0,-0.814 0.196,-1.456 0.588,-1.93 0.392,-0.473 0.921,-0.709 1.585,-0.709 0.172,0 0.441,0.058 0.808,0.173 0.367,0.114 0.729,0.337 1.087,0.667 C -0.104,-0.037 -0.042,0 0,0" /></g><g
           transform="translate(75.7979,49.0322)"
           id="g1062"><path
             id="path1064"
             style="fill:#000000;fill-opacity:1;fill-rule:nonzero;stroke:none"
             d="m 0,0 c 0.134,0 0.237,0.034 0.305,0.104 0.071,0.072 0.107,0.162 0.107,0.271 0,0.101 0.021,0.18 0.066,0.237 0.044,0.06 0.099,0.089 0.157,0.089 0.061,0 0.113,-0.028 0.153,-0.083 0.04,-0.055 0.061,-0.129 0.061,-0.222 0,-0.091 0.005,-0.19 0.012,-0.297 0.007,-0.106 0.012,-0.179 0.012,-0.218 0,-0.108 -0.017,-0.179 -0.045,-0.212 C 0.798,-0.364 0.72,-0.38 0.593,-0.38 H -2.6 c -0.223,0 -0.377,0.017 -0.459,0.052 -0.083,0.032 -0.125,0.083 -0.125,0.15 0,0.108 0.076,0.16 0.226,0.16 0.191,0 0.316,0.033 0.375,0.094 0.057,0.062 0.087,0.16 0.087,0.294 v 3.609 c 0,0.39 -0.007,0.648 -0.021,0.774 -0.012,0.126 -0.045,0.207 -0.099,0.243 -0.052,0.035 -0.157,0.053 -0.316,0.053 -0.093,0 -0.167,0.018 -0.219,0.054 -0.049,0.037 -0.075,0.082 -0.075,0.138 0,0.05 0.021,0.094 0.066,0.134 0.045,0.037 0.101,0.057 0.169,0.057 h 3.04 c 0.119,0 0.2,-0.025 0.235,-0.076 C 0.322,5.307 0.348,5.232 0.367,5.135 0.383,5.039 0.39,4.877 0.39,4.653 0.39,4.553 0.348,4.501 0.261,4.501 0.211,4.501 0.167,4.517 0.129,4.546 0.091,4.576 0.049,4.653 0.002,4.776 -0.043,4.899 -0.09,4.979 -0.14,5.014 -0.189,5.048 -0.246,5.065 -0.309,5.065 H -1.392 C -1.573,5.065 -1.689,5.039 -1.736,4.987 -1.782,4.937 -1.807,4.858 -1.807,4.756 V 3.922 c 0,-0.195 0.027,-0.323 0.081,-0.387 0.052,-0.061 0.158,-0.093 0.32,-0.093 h 1.05 c 0.087,0 0.153,0.036 0.198,0.106 0.045,0.069 0.068,0.147 0.068,0.235 0,0.045 0.019,0.082 0.054,0.112 0.038,0.03 0.083,0.045 0.132,0.045 0.052,0 0.096,-0.017 0.13,-0.05 C 0.261,3.855 0.277,3.808 0.277,3.744 0.277,3.688 0.268,3.609 0.251,3.505 0.235,3.401 0.226,3.316 0.226,3.252 0.226,3.152 0.237,3.047 0.259,2.938 0.282,2.826 0.293,2.76 0.293,2.735 0.293,2.676 0.273,2.626 0.233,2.587 0.195,2.547 0.148,2.527 0.096,2.527 c -0.056,0 -0.101,0.026 -0.139,0.074 -0.038,0.048 -0.054,0.114 -0.054,0.2 0,0.098 -0.028,0.17 -0.08,0.212 -0.052,0.043 -0.139,0.063 -0.261,0.063 H -1.481 C -1.578,3.076 -1.655,3.057 -1.714,3.02 -1.776,2.98 -1.807,2.926 -1.807,2.852 V 0.33 c 0,-0.132 0.034,-0.22 0.102,-0.265 C -1.639,0.021 -1.524,0 -1.359,0 Z" /></g><g
           transform="translate(81.6904,53.3955)"
           id="g1066"><path
             id="path1068"
             style="fill:#000000;fill-opacity:1;fill-rule:nonzero;stroke:none"
             d="M 0,0 C 0,-0.132 0.044,-0.265 0.136,-0.399 0.226,-0.534 0.457,-0.735 0.828,-1 1.546,-1.508 2.025,-1.917 2.26,-2.228 c 0.238,-0.31 0.355,-0.643 0.355,-0.995 0,-0.5 -0.193,-0.886 -0.578,-1.165 -0.387,-0.276 -0.811,-0.414 -1.272,-0.414 -0.325,0 -0.66,0.067 -1.003,0.202 -0.344,0.136 -0.515,0.28 -0.515,0.428 0,0.038 0.004,0.107 0.011,0.208 0.007,0.101 0.011,0.228 0.011,0.381 0,0.053 -0.004,0.116 -0.014,0.19 -0.008,0.077 -0.014,0.124 -0.014,0.15 0,0.096 0.059,0.145 0.172,0.145 0.13,0 0.2,-0.097 0.217,-0.292 0.031,-0.322 0.144,-0.571 0.339,-0.749 0.193,-0.179 0.464,-0.269 0.808,-0.269 0.348,0 0.635,0.097 0.861,0.294 0.228,0.195 0.341,0.451 0.341,0.766 0,0.189 -0.075,0.39 -0.229,0.602 -0.154,0.213 -0.554,0.551 -1.206,1.013 -0.269,0.19 -0.478,0.35 -0.634,0.483 -0.153,0.133 -0.283,0.291 -0.386,0.472 -0.104,0.181 -0.155,0.387 -0.155,0.62 0,0.375 0.169,0.687 0.511,0.934 0.341,0.248 0.732,0.371 1.177,0.371 0.251,0 0.522,-0.062 0.811,-0.187 C 2.156,0.835 2.3,0.688 2.3,0.52 2.3,0.497 2.3,0.459 2.294,0.407 2.292,0.356 2.292,0.281 2.292,0.182 c 0,-0.028 0.006,-0.079 0.017,-0.155 0,-0.173 -0.061,-0.26 -0.181,-0.26 -0.043,0 -0.085,0.019 -0.125,0.06 -0.043,0.04 -0.062,0.086 -0.062,0.132 0,0.257 -0.087,0.453 -0.261,0.592 C 1.507,0.687 1.292,0.757 1.041,0.757 0.755,0.757 0.51,0.678 0.307,0.521 0.102,0.363 0,0.189 0,0" /></g><g
           transform="translate(91.5947,48.9561)"
           id="g1070"><path
             id="path1072"
             style="fill:#000000;fill-opacity:1;fill-rule:nonzero;stroke:none"
             d="m 0,0 c 0.494,0 0.906,0.109 1.237,0.328 0.331,0.219 0.569,0.488 0.709,0.808 0.144,0.32 0.215,0.747 0.215,1.279 0,0.919 -0.192,1.621 -0.577,2.106 -0.387,0.488 -0.906,0.73 -1.561,0.73 -0.678,0 -1.208,-0.249 -1.589,-0.749 C -1.949,4.004 -2.141,3.411 -2.141,2.727 -2.141,0.909 -1.426,0 0,0 M 0.023,5.606 C 0.944,5.606 1.666,5.291 2.191,4.66 2.719,4.028 2.983,3.32 2.983,2.532 2.983,1.952 2.84,1.421 2.554,0.938 2.268,0.458 1.895,0.119 1.436,-0.078 0.977,-0.276 0.489,-0.374 -0.024,-0.374 c -0.84,0 -1.539,0.291 -2.095,0.875 -0.558,0.584 -0.838,1.325 -0.838,2.226 0,0.47 0.124,0.936 0.372,1.396 0.247,0.46 0.596,0.823 1.048,1.087 0.449,0.265 0.969,0.396 1.56,0.396" /></g><g
           transform="translate(99.4551,53.7656)"
           id="g1074"><path
             id="path1076"
             style="fill:#000000;fill-opacity:1;fill-rule:nonzero;stroke:none"
             d="m 0,0 c 0,0.2 -0.137,0.308 -0.41,0.323 -0.188,0.011 -0.281,0.073 -0.281,0.185 0,0.116 0.107,0.175 0.324,0.175 0.1,0 0.214,-0.009 0.339,-0.028 C 0.094,0.637 0.2,0.626 0.287,0.626 c 0.058,0 0.217,0.02 0.481,0.057 0.264,0.036 0.463,0.054 0.607,0.054 0.542,0 0.979,-0.138 1.318,-0.419 C 3.03,0.04 3.199,-0.322 3.199,-0.769 3.199,-1.052 3.115,-1.287 2.948,-1.473 2.782,-1.659 2.493,-1.83 2.085,-1.988 2.011,-2.017 1.974,-2.047 1.974,-2.08 c 0,-0.021 0.013,-0.055 0.047,-0.103 0.143,-0.205 0.416,-0.648 0.816,-1.33 0.402,-0.683 0.614,-1.041 0.641,-1.07 0.028,-0.03 0.096,-0.064 0.209,-0.103 0.116,-0.037 0.186,-0.076 0.216,-0.114 0.032,-0.037 0.045,-0.08 0.045,-0.126 0,-0.06 -0.038,-0.112 -0.117,-0.155 -0.08,-0.042 -0.142,-0.064 -0.191,-0.064 -0.12,0 -0.268,0.046 -0.443,0.139 -0.172,0.094 -0.287,0.174 -0.341,0.238 -0.103,0.132 -0.44,0.667 -1.008,1.609 -0.266,0.439 -0.419,0.685 -0.458,0.74 -0.142,0.205 -0.284,0.337 -0.42,0.396 -0.033,0.012 -0.057,0.027 -0.066,0.042 -0.011,0.013 -0.016,0.044 -0.016,0.092 0,0.116 0.067,0.173 0.205,0.173 0.011,0 0.049,-0.006 0.109,-0.013 0.06,-0.01 0.119,-0.015 0.178,-0.015 0.287,0 0.529,0.093 0.723,0.281 0.195,0.187 0.292,0.447 0.292,0.782 0,0.238 -0.109,0.474 -0.328,0.708 C 1.848,0.262 1.547,0.378 1.158,0.378 1.015,0.378 0.909,0.362 0.843,0.329 0.774,0.296 0.732,0.256 0.716,0.207 0.699,0.158 0.689,0.094 0.689,0.016 v -4.427 c 0,-0.086 0.039,-0.157 0.114,-0.212 0.075,-0.054 0.174,-0.079 0.296,-0.079 0.132,0 0.219,-0.018 0.264,-0.052 0.047,-0.034 0.069,-0.083 0.069,-0.148 0,-0.063 -0.029,-0.116 -0.085,-0.157 C 1.29,-5.1 1.206,-5.121 1.093,-5.121 c -0.102,0 -0.23,0.029 -0.377,0.088 -0.148,0.058 -0.264,0.09 -0.351,0.09 -0.073,0 -0.183,-0.03 -0.332,-0.085 -0.145,-0.058 -0.261,-0.085 -0.345,-0.085 -0.244,0 -0.364,0.075 -0.364,0.226 0,0.057 0.02,0.099 0.059,0.126 0.04,0.03 0.137,0.042 0.295,0.042 0.094,0 0.171,0.021 0.23,0.063 C -0.03,-4.613 0,-4.562 0,-4.502 Z" /></g><g
           transform="translate(108.1592,53.6006)"
           id="g1078"><path
             id="path1080"
             style="fill:#000000;fill-opacity:1;fill-rule:nonzero;stroke:none"
             d="m 0,0 c 0,0.153 -0.03,0.257 -0.09,0.313 -0.059,0.057 -0.134,0.099 -0.228,0.126 -0.094,0.028 -0.159,0.054 -0.193,0.082 -0.035,0.027 -0.054,0.074 -0.054,0.143 0,0.041 0.019,0.073 0.054,0.1 0.034,0.026 0.074,0.041 0.122,0.041 0.083,0 0.205,-0.015 0.372,-0.04 0.164,-0.027 0.289,-0.039 0.377,-0.039 0.08,0 0.195,0.01 0.348,0.035 C 0.861,0.784 0.977,0.796 1.055,0.796 1.184,0.796 1.25,0.741 1.25,0.633 1.25,0.565 1.233,0.521 1.198,0.497 1.166,0.473 1.095,0.45 0.99,0.432 0.885,0.412 0.808,0.357 0.76,0.266 0.713,0.176 0.689,0.044 0.689,-0.129 v -4.083 c 0,-0.076 0.019,-0.144 0.054,-0.202 0.036,-0.06 0.113,-0.106 0.236,-0.138 0.123,-0.033 0.198,-0.067 0.223,-0.103 0.027,-0.035 0.04,-0.077 0.04,-0.125 0,-0.096 -0.082,-0.145 -0.245,-0.145 -0.072,0 -0.18,0.013 -0.321,0.038 -0.142,0.025 -0.25,0.036 -0.323,0.036 -0.068,0 -0.171,-0.009 -0.313,-0.029 -0.142,-0.019 -0.247,-0.03 -0.317,-0.03 -0.197,0 -0.295,0.064 -0.295,0.189 0,0.034 0.009,0.065 0.03,0.092 0.021,0.025 0.096,0.051 0.224,0.073 0.127,0.023 0.211,0.079 0.255,0.169 C -0.021,-4.297 0,-4.195 0,-4.082 Z" /></g><g
           transform="translate(116.6973,48.9561)"
           id="g1082"><path
             id="path1084"
             style="fill:#000000;fill-opacity:1;fill-rule:nonzero;stroke:none"
             d="m 0,0 c 0.497,0 0.909,0.109 1.239,0.328 0.332,0.219 0.568,0.488 0.711,0.808 0.141,0.32 0.211,0.747 0.211,1.279 0,0.919 -0.189,1.621 -0.576,2.106 -0.384,0.488 -0.904,0.73 -1.561,0.73 -0.677,0 -1.208,-0.249 -1.588,-0.749 C -1.946,4.004 -2.137,3.411 -2.137,2.727 -2.137,0.909 -1.424,0 0,0 M 0.024,5.606 C 0.945,5.606 1.668,5.291 2.194,4.66 2.72,4.028 2.982,3.32 2.982,2.532 2.982,1.952 2.84,1.421 2.554,0.938 2.271,0.458 1.898,0.119 1.438,-0.078 0.979,-0.276 0.492,-0.374 -0.023,-0.374 c -0.838,0 -1.538,0.291 -2.095,0.875 -0.559,0.584 -0.836,1.325 -0.836,2.226 0,0.47 0.122,0.936 0.369,1.396 0.248,0.46 0.599,0.823 1.049,1.087 0.451,0.265 0.972,0.396 1.56,0.396" /></g><g
           transform="translate(124.7803,53.3955)"
           id="g1086"><path
             id="path1088"
             style="fill:#000000;fill-opacity:1;fill-rule:nonzero;stroke:none"
             d="M 0,0 C 0,-0.132 0.044,-0.265 0.137,-0.399 0.226,-0.534 0.456,-0.735 0.828,-1 1.546,-1.508 2.024,-1.917 2.26,-2.228 c 0.237,-0.31 0.355,-0.643 0.355,-0.995 0,-0.5 -0.192,-0.886 -0.579,-1.165 -0.387,-0.276 -0.809,-0.414 -1.271,-0.414 -0.325,0 -0.66,0.067 -1.003,0.202 -0.344,0.136 -0.516,0.28 -0.516,0.428 0,0.038 0.005,0.107 0.012,0.208 0.007,0.101 0.012,0.228 0.012,0.381 0,0.053 -0.005,0.116 -0.014,0.19 -0.01,0.077 -0.014,0.124 -0.014,0.15 0,0.096 0.058,0.145 0.171,0.145 0.13,0 0.2,-0.097 0.218,-0.292 0.03,-0.322 0.143,-0.571 0.339,-0.749 0.191,-0.179 0.463,-0.269 0.806,-0.269 0.349,0 0.635,0.097 0.862,0.294 0.229,0.195 0.342,0.451 0.342,0.766 0,0.189 -0.076,0.39 -0.229,0.602 -0.155,0.213 -0.556,0.551 -1.207,1.013 -0.27,0.19 -0.479,0.35 -0.634,0.483 -0.153,0.133 -0.282,0.291 -0.386,0.472 -0.103,0.181 -0.156,0.387 -0.156,0.62 0,0.375 0.171,0.687 0.512,0.934 C 0.221,1.024 0.611,1.147 1.057,1.147 1.309,1.147 1.58,1.085 1.869,0.96 2.156,0.835 2.3,0.688 2.3,0.52 2.3,0.497 2.3,0.459 2.294,0.407 2.292,0.356 2.292,0.281 2.292,0.182 c 0,-0.028 0.006,-0.079 0.018,-0.155 0,-0.173 -0.062,-0.26 -0.182,-0.26 -0.042,0 -0.085,0.019 -0.125,0.06 -0.042,0.04 -0.062,0.086 -0.062,0.132 0,0.257 -0.087,0.453 -0.261,0.592 C 1.506,0.687 1.292,0.757 1.04,0.757 0.755,0.757 0.51,0.678 0.306,0.521 0.101,0.363 0,0.189 0,0" /></g><g
           transform="translate(45.4297,42.8545)"
           id="g1090"><path
             id="path1092"
             style="fill:#000000;fill-opacity:1;fill-rule:nonzero;stroke:none"
             d="m 0,0 c -0.005,0.098 -0.033,0.178 -0.084,0.24 -0.052,0.064 -0.151,0.102 -0.297,0.117 -0.149,0.015 -0.245,0.034 -0.29,0.059 -0.044,0.025 -0.066,0.082 -0.066,0.17 0,0.092 0.073,0.14 0.217,0.14 0.031,0 0.137,-0.014 0.315,-0.043 0.179,-0.03 0.351,-0.043 0.516,-0.043 0.092,0 0.221,0.012 0.388,0.038 0.165,0.027 0.309,0.04 0.426,0.04 0.175,0 0.262,-0.061 0.262,-0.18 C 1.387,0.495 1.37,0.461 1.342,0.437 1.314,0.411 1.241,0.395 1.121,0.387 0.978,0.379 0.876,0.356 0.817,0.318 0.711,0.256 0.662,0.138 0.667,-0.04 l 0.086,-3.864 c 0,-0.307 -0.136,-0.589 -0.414,-0.843 -0.275,-0.254 -0.574,-0.383 -0.895,-0.383 -0.397,0 -0.696,0.084 -0.899,0.254 -0.202,0.169 -0.304,0.329 -0.304,0.478 0,0.204 0.083,0.306 0.246,0.306 0.098,0 0.179,-0.036 0.24,-0.106 0.063,-0.072 0.094,-0.133 0.094,-0.186 0,-0.077 0.054,-0.158 0.162,-0.247 0.108,-0.088 0.226,-0.131 0.355,-0.131 0.165,0 0.328,0.073 0.491,0.218 0.159,0.146 0.237,0.343 0.235,0.59 z" /></g><g
           transform="translate(53.5806,38.1074)"
           id="g1094"><path
             id="path1096"
             style="fill:#000000;fill-opacity:1;fill-rule:nonzero;stroke:none"
             d="M 0,0 C 0.497,0 0.908,0.109 1.238,0.328 1.57,0.547 1.805,0.816 1.949,1.137 2.09,1.456 2.161,1.883 2.161,2.415 2.161,3.335 1.97,4.037 1.584,4.522 1.201,5.009 0.68,5.251 0.023,5.251 -0.655,5.251 -1.185,5.002 -1.566,4.504 -1.947,4.004 -2.138,3.411 -2.138,2.727 -2.138,0.909 -1.425,0 0,0 M 0.023,5.607 C 0.944,5.607 1.667,5.29 2.194,4.66 2.719,4.028 2.982,3.32 2.982,2.533 2.982,1.952 2.838,1.421 2.554,0.939 2.269,0.458 1.897,0.119 1.438,-0.078 0.979,-0.277 0.492,-0.374 -0.024,-0.374 c -0.838,0 -1.538,0.291 -2.095,0.875 -0.558,0.584 -0.836,1.326 -0.836,2.226 0,0.47 0.122,0.936 0.37,1.396 0.247,0.46 0.598,0.823 1.047,1.087 0.453,0.265 0.973,0.397 1.561,0.397" /></g><g
           transform="translate(63.1831,41.0586)"
           id="g1098"><path
             id="path1100"
             style="fill:#000000;fill-opacity:1;fill-rule:nonzero;stroke:none"
             d="M 0,0 C 0.023,0.011 0.049,0.037 0.076,0.079 L 0.172,0.241 C 0.845,1.317 1.182,1.916 1.182,2.04 1.182,2.077 1.17,2.106 1.145,2.127 1.119,2.148 1.048,2.161 0.932,2.166 0.817,2.172 0.744,2.19 0.709,2.222 0.676,2.252 0.66,2.294 0.66,2.346 0.66,2.404 0.693,2.448 0.758,2.48 0.824,2.513 0.895,2.529 0.975,2.529 1.043,2.529 1.146,2.518 1.288,2.494 1.427,2.47 1.533,2.458 1.608,2.458 1.674,2.458 1.769,2.469 1.894,2.49 2.02,2.511 2.112,2.521 2.173,2.521 2.239,2.521 2.3,2.507 2.357,2.474 2.413,2.443 2.442,2.402 2.442,2.354 2.442,2.226 2.345,2.163 2.15,2.163 2.015,2.163 1.896,2.13 1.792,2.063 1.686,1.998 1.573,1.864 1.455,1.661 L 1.25,1.323 C 0.514,0.114 0.146,-0.539 0.146,-0.638 v -1.685 c 0,-0.262 0.016,-0.42 0.052,-0.479 0.035,-0.057 0.109,-0.099 0.219,-0.125 0.108,-0.027 0.174,-0.052 0.195,-0.08 0.024,-0.027 0.036,-0.058 0.036,-0.096 0,-0.053 -0.022,-0.097 -0.064,-0.133 -0.042,-0.036 -0.092,-0.055 -0.146,-0.055 -0.068,0 -0.167,0.012 -0.294,0.036 -0.127,0.024 -0.227,0.035 -0.297,0.035 -0.066,0 -0.16,-0.011 -0.28,-0.035 -0.123,-0.024 -0.214,-0.036 -0.275,-0.036 -0.083,0 -0.156,0.017 -0.219,0.048 -0.064,0.033 -0.094,0.076 -0.094,0.133 0,0.045 0.012,0.084 0.035,0.117 0.024,0.034 0.082,0.058 0.177,0.076 0.093,0.016 0.16,0.044 0.195,0.081 0.035,0.035 0.056,0.074 0.061,0.113 0.005,0.04 0.007,0.136 0.007,0.291 v 1.89 c 0,0.056 -0.014,0.105 -0.047,0.149 l -1.431,2.036 c -0.127,0.176 -0.233,0.301 -0.321,0.376 -0.087,0.074 -0.202,0.112 -0.35,0.112 -0.182,0 -0.273,0.066 -0.273,0.199 0,0.126 0.089,0.188 0.265,0.188 0.09,0 0.222,-0.011 0.395,-0.036 0.176,-0.024 0.309,-0.036 0.399,-0.036 0.073,0 0.185,0.012 0.337,0.036 0.15,0.025 0.263,0.036 0.341,0.036 0.256,0 0.386,-0.062 0.386,-0.189 0,-0.05 -0.017,-0.091 -0.05,-0.12 C -0.927,2.179 -1,2.155 -1.116,2.143 -1.229,2.13 -1.302,2.111 -1.328,2.09 -1.356,2.067 -1.37,2.039 -1.37,2.005 -1.37,1.916 -1.158,1.59 -0.737,1.025 -0.678,0.948 -0.544,0.757 -0.334,0.454 -0.125,0.152 -0.014,0 0,0" /></g><g
           transform="translate(72.061,42.168)"
           id="g1102"><path
             id="path1104"
             style="fill:#000000;fill-opacity:1;fill-rule:nonzero;stroke:none"
             d="m 0,0 c -0.051,0.12 -0.092,0.182 -0.118,0.182 -0.03,0 -0.08,-0.085 -0.143,-0.253 l -0.841,-1.928 -0.727,-1.624 c -0.021,-0.05 -0.033,-0.094 -0.033,-0.13 0,-0.039 0.017,-0.074 0.047,-0.106 0.028,-0.032 0.102,-0.064 0.214,-0.095 0.113,-0.031 0.184,-0.063 0.212,-0.094 0.031,-0.033 0.045,-0.069 0.045,-0.109 0,-0.122 -0.08,-0.184 -0.238,-0.184 -0.035,0 -0.127,0.012 -0.268,0.034 -0.144,0.023 -0.264,0.035 -0.358,0.035 -0.099,0 -0.198,-0.01 -0.302,-0.031 -0.1,-0.019 -0.176,-0.03 -0.223,-0.03 -0.066,0 -0.121,0.019 -0.163,0.053 -0.042,0.034 -0.063,0.074 -0.063,0.121 0,0.068 0.014,0.113 0.04,0.135 0.026,0.02 0.075,0.036 0.146,0.045 0.203,0.036 0.343,0.113 0.421,0.233 0.078,0.12 0.276,0.543 0.599,1.271 l 0.953,2.131 c 0.235,0.511 0.385,0.85 0.452,1.017 0.068,0.166 0.101,0.296 0.101,0.389 0,0.031 -0.012,0.087 -0.035,0.171 -0.024,0.082 -0.036,0.142 -0.036,0.179 0,0.076 0.041,0.114 0.123,0.114 0.134,0 0.242,-0.056 0.322,-0.169 C 0.209,1.244 0.318,1.031 0.454,0.718 L 1.546,-1.753 C 1.945,-2.651 2.197,-3.207 2.3,-3.42 2.406,-3.634 2.493,-3.771 2.559,-3.833 2.627,-3.896 2.708,-3.94 2.801,-3.97 c 0.095,-0.029 0.161,-0.056 0.194,-0.084 0.035,-0.028 0.051,-0.075 0.051,-0.14 0,-0.093 -0.082,-0.139 -0.249,-0.139 -0.054,0 -0.155,0.01 -0.301,0.026 -0.146,0.018 -0.292,0.026 -0.438,0.026 -0.144,0 -0.294,-0.01 -0.452,-0.03 -0.158,-0.02 -0.264,-0.03 -0.323,-0.03 -0.089,0 -0.16,0.017 -0.211,0.047 -0.055,0.03 -0.081,0.072 -0.081,0.125 0,0.045 0.016,0.083 0.047,0.112 0.034,0.03 0.118,0.051 0.257,0.064 0.139,0.013 0.228,0.042 0.27,0.089 0.041,0.046 0.062,0.102 0.062,0.171 0,0.073 -0.076,0.275 -0.226,0.608 -0.149,0.331 -0.242,0.508 -0.28,0.528 -0.035,0.021 -0.106,0.032 -0.212,0.032 h -1.761 c -0.068,0 -0.13,0.021 -0.184,0.066 -0.056,0.044 -0.085,0.095 -0.085,0.153 0,0.045 0.024,0.085 0.066,0.119 0.043,0.036 0.093,0.052 0.149,0.052 h 1.692 c 0.095,0 0.142,0.018 0.142,0.051 0,0.021 -0.019,0.073 -0.054,0.155 z" /></g><g
           transform="translate(79.5923,42.5479)"
           id="g1106"><path
             id="path1108"
             style="fill:#000000;fill-opacity:1;fill-rule:nonzero;stroke:none"
             d="m 0,0 c 0,-0.131 0.045,-0.265 0.137,-0.4 0.09,-0.136 0.32,-0.335 0.692,-0.601 0.717,-0.507 1.195,-0.916 1.431,-1.227 0.238,-0.311 0.355,-0.644 0.355,-0.996 0,-0.499 -0.192,-0.886 -0.578,-1.165 -0.386,-0.275 -0.81,-0.414 -1.272,-0.414 -0.325,0 -0.659,0.068 -1.003,0.203 -0.344,0.135 -0.515,0.279 -0.515,0.428 0,0.037 0.005,0.106 0.012,0.207 0.007,0.102 0.011,0.229 0.011,0.381 0,0.053 -0.004,0.116 -0.014,0.191 -0.009,0.076 -0.014,0.125 -0.014,0.149 0,0.096 0.059,0.145 0.172,0.145 0.129,0 0.2,-0.097 0.216,-0.292 0.031,-0.322 0.143,-0.571 0.34,-0.749 0.193,-0.179 0.464,-0.269 0.807,-0.269 0.348,0 0.636,0.097 0.862,0.294 0.228,0.195 0.341,0.451 0.341,0.766 0,0.189 -0.075,0.39 -0.229,0.603 -0.155,0.212 -0.554,0.55 -1.207,1.012 -0.269,0.19 -0.477,0.35 -0.634,0.483 -0.153,0.134 -0.282,0.291 -0.386,0.472 -0.103,0.181 -0.154,0.388 -0.154,0.62 0,0.377 0.169,0.687 0.51,0.935 0.341,0.246 0.732,0.37 1.178,0.37 0.251,0 0.522,-0.062 0.811,-0.186 0.287,-0.126 0.432,-0.273 0.432,-0.44 0,-0.024 0,-0.062 -0.006,-0.114 C 2.292,0.355 2.292,0.28 2.292,0.18 c 0,-0.027 0.006,-0.077 0.018,-0.154 0,-0.173 -0.062,-0.259 -0.182,-0.259 -0.042,0 -0.085,0.02 -0.125,0.059 -0.042,0.04 -0.061,0.085 -0.061,0.132 0,0.257 -0.087,0.454 -0.261,0.592 C 1.506,0.687 1.293,0.756 1.04,0.756 0.756,0.756 0.511,0.677 0.306,0.52 0.101,0.362 0,0.188 0,0" /></g><g
           transform="translate(93.8193,41.0586)"
           id="g1110"><path
             id="path1112"
             style="fill:#000000;fill-opacity:1;fill-rule:nonzero;stroke:none"
             d="m 0,0 c 0.023,0.011 0.047,0.037 0.073,0.079 l 0.099,0.162 c 0.673,1.076 1.01,1.675 1.01,1.799 0,0.037 -0.015,0.066 -0.04,0.087 C 1.115,2.148 1.046,2.161 0.932,2.166 0.816,2.172 0.741,2.19 0.709,2.222 0.673,2.252 0.657,2.294 0.657,2.346 c 0,0.058 0.032,0.102 0.098,0.134 0.066,0.033 0.14,0.049 0.217,0.049 0.07,0 0.174,-0.011 0.313,-0.035 0.139,-0.024 0.247,-0.036 0.32,-0.036 0.067,0 0.163,0.011 0.288,0.032 0.124,0.021 0.219,0.031 0.278,0.031 0.065,0 0.127,-0.014 0.183,-0.047 C 2.413,2.443 2.441,2.402 2.441,2.354 2.441,2.226 2.342,2.163 2.148,2.163 2.015,2.163 1.895,2.13 1.789,2.063 1.684,1.998 1.572,1.864 1.454,1.661 L 1.247,1.323 C 0.514,0.114 0.144,-0.539 0.144,-0.638 v -1.685 c 0,-0.262 0.018,-0.42 0.054,-0.479 0.034,-0.057 0.108,-0.099 0.216,-0.125 0.107,-0.027 0.174,-0.052 0.198,-0.08 0.021,-0.027 0.033,-0.058 0.033,-0.096 0,-0.053 -0.022,-0.097 -0.064,-0.133 -0.042,-0.036 -0.089,-0.055 -0.145,-0.055 -0.07,0 -0.165,0.012 -0.292,0.036 -0.128,0.024 -0.226,0.035 -0.296,0.035 -0.068,0 -0.161,-0.011 -0.284,-0.035 -0.123,-0.024 -0.212,-0.036 -0.272,-0.036 -0.086,0 -0.159,0.017 -0.222,0.048 -0.063,0.033 -0.094,0.076 -0.094,0.133 0,0.045 0.011,0.084 0.035,0.117 0.023,0.034 0.082,0.058 0.179,0.076 0.094,0.016 0.16,0.044 0.196,0.081 0.035,0.035 0.053,0.074 0.06,0.113 0.005,0.04 0.007,0.136 0.007,0.291 v 1.89 c 0,0.056 -0.015,0.105 -0.046,0.149 l -1.434,2.036 c -0.124,0.176 -0.231,0.301 -0.318,0.376 -0.088,0.074 -0.205,0.112 -0.35,0.112 -0.185,0 -0.274,0.066 -0.274,0.199 0,0.126 0.087,0.188 0.264,0.188 0.09,0 0.221,-0.011 0.398,-0.036 0.174,-0.024 0.305,-0.036 0.395,-0.036 0.073,0 0.185,0.012 0.337,0.036 0.153,0.025 0.265,0.036 0.341,0.036 0.258,0 0.388,-0.062 0.388,-0.189 0,-0.05 -0.015,-0.091 -0.05,-0.12 C -0.928,2.179 -1.003,2.155 -1.116,2.143 -1.232,2.13 -1.302,2.111 -1.33,2.09 -1.356,2.067 -1.37,2.039 -1.37,2.005 -1.37,1.916 -1.161,1.59 -0.736,1.025 -0.681,0.948 -0.547,0.757 -0.337,0.454 -0.125,0.152 -0.015,0 0,0" /></g><g
           transform="translate(110.2119,38.6836)"
           id="g1114"><path
             id="path1116"
             style="fill:#000000;fill-opacity:1;fill-rule:nonzero;stroke:none"
             d="m 0,0 c 0,-0.108 0.023,-0.204 0.072,-0.286 0.053,-0.082 0.152,-0.14 0.305,-0.17 0.149,-0.03 0.239,-0.062 0.268,-0.092 0.031,-0.032 0.044,-0.07 0.044,-0.115 0,-0.047 -0.021,-0.088 -0.061,-0.12 -0.04,-0.032 -0.099,-0.049 -0.176,-0.049 -0.056,0 -0.167,0.013 -0.334,0.037 -0.166,0.024 -0.302,0.038 -0.413,0.038 -0.075,0 -0.205,-0.014 -0.394,-0.038 -0.19,-0.024 -0.324,-0.037 -0.406,-0.037 -0.168,0 -0.252,0.061 -0.252,0.185 0,0.06 0.02,0.1 0.056,0.12 0.036,0.02 0.095,0.033 0.173,0.042 0.192,0.02 0.313,0.057 0.362,0.109 0.047,0.051 0.072,0.171 0.072,0.36 v 3.382 c 0,0.144 -0.005,0.216 -0.02,0.216 -0.019,0 -0.064,-0.069 -0.135,-0.208 L -1.447,2.18 C -1.702,1.68 -1.936,1.237 -2.145,0.849 -2.352,0.462 -2.465,0.253 -2.479,0.224 -2.493,0.196 -2.51,0.172 -2.529,0.154 -2.547,0.136 -2.575,0.127 -2.616,0.127 -2.681,0.127 -2.74,0.178 -2.792,0.28 L -4.266,3.196 C -4.335,3.333 -4.377,3.4 -4.394,3.4 -4.404,3.4 -4.412,3.333 -4.412,3.196 v -3.338 c 0,-0.098 0.043,-0.178 0.127,-0.243 0.082,-0.064 0.165,-0.096 0.243,-0.096 0.221,0 0.332,-0.062 0.332,-0.188 0,-0.114 -0.097,-0.171 -0.288,-0.171 -0.032,0 -0.119,0.014 -0.266,0.042 -0.146,0.027 -0.25,0.041 -0.31,0.041 -0.078,0 -0.187,-0.016 -0.325,-0.046 -0.139,-0.03 -0.236,-0.046 -0.294,-0.046 -0.086,0 -0.154,0.023 -0.205,0.067 -0.052,0.044 -0.081,0.089 -0.081,0.136 0,0.049 0.034,0.09 0.095,0.126 0.061,0.037 0.132,0.054 0.214,0.054 0.259,0 0.387,0.152 0.387,0.453 v 4.121 c 0,0.108 -0.034,0.201 -0.102,0.278 -0.069,0.077 -0.168,0.124 -0.293,0.142 -0.127,0.017 -0.209,0.043 -0.249,0.08 -0.04,0.038 -0.058,0.083 -0.058,0.138 0,0.04 0.026,0.075 0.078,0.108 0.052,0.031 0.102,0.045 0.155,0.045 0.054,0 0.124,-0.01 0.205,-0.033 0.082,-0.021 0.148,-0.033 0.196,-0.033 0.051,0 0.114,0.012 0.192,0.033 0.075,0.023 0.137,0.033 0.184,0.033 0.063,0 0.115,-0.023 0.153,-0.074 0.037,-0.05 0.091,-0.15 0.159,-0.3 L -3.265,2.719 -2.517,1.216 C -2.484,1.152 -2.46,1.12 -2.445,1.12 c 0.017,0 0.042,0.029 0.072,0.087 0.812,1.525 1.38,2.609 1.707,3.251 0.096,0.19 0.178,0.311 0.249,0.359 0.07,0.05 0.144,0.076 0.224,0.076 0.036,0 0.099,-0.006 0.183,-0.016 0.088,-0.011 0.154,-0.016 0.197,-0.016 0.044,0 0.098,0.006 0.162,0.021 0.062,0.012 0.103,0.017 0.12,0.017 0.141,0 0.214,-0.055 0.214,-0.17 0,-0.093 -0.071,-0.14 -0.208,-0.14 -0.113,0 -0.211,-0.04 -0.293,-0.12 C 0.098,4.388 0.044,4.331 0.026,4.295 0.007,4.26 0,4.176 0,4.041 Z" /></g><g
           transform="translate(118.0088,45.2451)"
           id="g1118"><path
             id="path1120"
             style="fill:#000000;fill-opacity:1;fill-rule:nonzero;stroke:none"
             d="m 0,0 c 0.13,0 0.233,-0.021 0.309,-0.063 0.076,-0.042 0.116,-0.098 0.116,-0.169 0,-0.169 -0.102,-0.253 -0.303,-0.253 -0.054,0 -0.119,-0.025 -0.191,-0.074 -0.075,-0.048 -0.2,-0.17 -0.375,-0.362 -0.177,-0.193 -0.299,-0.291 -0.368,-0.291 -0.061,0 -0.09,0.026 -0.09,0.08 0,0.115 0.106,0.332 0.321,0.653 C -0.366,-0.159 -0.171,0 0,0 m -0.571,-3.077 c -0.052,0.12 -0.092,0.181 -0.118,0.181 -0.031,0 -0.081,-0.084 -0.144,-0.252 L -1.674,-5.076 -2.401,-6.7 c -0.021,-0.05 -0.033,-0.094 -0.033,-0.13 0,-0.039 0.017,-0.074 0.047,-0.107 0.028,-0.031 0.101,-0.063 0.214,-0.094 0.112,-0.031 0.184,-0.063 0.212,-0.094 0.03,-0.033 0.044,-0.069 0.044,-0.109 0,-0.122 -0.079,-0.184 -0.237,-0.184 -0.035,0 -0.127,0.012 -0.268,0.034 -0.144,0.023 -0.265,0.034 -0.358,0.034 -0.099,0 -0.198,-0.009 -0.301,-0.03 -0.102,-0.019 -0.177,-0.03 -0.224,-0.03 -0.066,0 -0.121,0.018 -0.163,0.053 -0.042,0.034 -0.063,0.074 -0.063,0.121 0,0.068 0.013,0.113 0.04,0.134 0.025,0.021 0.075,0.037 0.145,0.046 0.203,0.035 0.345,0.113 0.422,0.233 0.078,0.12 0.276,0.543 0.599,1.271 l 0.952,2.131 c 0.235,0.511 0.387,0.85 0.453,1.017 0.067,0.166 0.101,0.296 0.101,0.388 0,0.032 -0.012,0.088 -0.035,0.172 -0.023,0.082 -0.036,0.142 -0.036,0.179 0,0.076 0.041,0.114 0.123,0.114 0.134,0 0.243,-0.056 0.323,-0.169 0.082,-0.113 0.19,-0.326 0.327,-0.639 L 0.975,-4.83 c 0.398,-0.899 0.65,-1.454 0.754,-1.667 0.105,-0.214 0.193,-0.352 0.258,-0.413 0.069,-0.064 0.149,-0.108 0.242,-0.137 0.095,-0.029 0.161,-0.057 0.194,-0.084 0.035,-0.028 0.053,-0.075 0.053,-0.14 0,-0.093 -0.083,-0.139 -0.251,-0.139 -0.054,0 -0.156,0.01 -0.301,0.026 -0.146,0.018 -0.293,0.026 -0.439,0.026 -0.143,0 -0.293,-0.01 -0.451,-0.03 -0.158,-0.02 -0.264,-0.03 -0.322,-0.03 -0.09,0 -0.161,0.017 -0.213,0.047 -0.054,0.03 -0.08,0.072 -0.08,0.125 0,0.045 0.017,0.083 0.048,0.112 0.032,0.03 0.117,0.051 0.257,0.064 0.137,0.012 0.227,0.042 0.269,0.089 0.041,0.045 0.062,0.102 0.062,0.17 0,0.074 -0.076,0.276 -0.226,0.609 -0.148,0.331 -0.242,0.508 -0.28,0.528 -0.036,0.021 -0.107,0.031 -0.212,0.031 h -1.76 c -0.069,0 -0.131,0.022 -0.184,0.067 -0.057,0.044 -0.086,0.095 -0.086,0.153 0,0.045 0.024,0.085 0.067,0.119 0.042,0.035 0.092,0.052 0.147,0.052 h 1.693 c 0.095,0 0.142,0.018 0.142,0.051 0,0.021 -0.019,0.073 -0.054,0.155 z" /></g><g
           transform="translate(124.9688,42.5479)"
           id="g1122"><path
             id="path1124"
             style="fill:#000000;fill-opacity:1;fill-rule:nonzero;stroke:none"
             d="m 0,0 c 0,-0.131 0.044,-0.265 0.136,-0.4 0.09,-0.136 0.321,-0.335 0.692,-0.601 0.718,-0.507 1.195,-0.916 1.432,-1.227 0.238,-0.311 0.355,-0.644 0.355,-0.996 0,-0.499 -0.193,-0.886 -0.58,-1.165 -0.386,-0.275 -0.808,-0.414 -1.27,-0.414 -0.326,0 -0.661,0.068 -1.003,0.203 -0.344,0.135 -0.515,0.279 -0.515,0.428 0,0.037 0.004,0.106 0.012,0.207 0.006,0.102 0.011,0.229 0.011,0.381 0,0.053 -0.005,0.116 -0.015,0.191 -0.008,0.076 -0.014,0.125 -0.014,0.149 0,0.096 0.06,0.145 0.172,0.145 0.13,0 0.2,-0.097 0.217,-0.292 0.031,-0.322 0.143,-0.571 0.339,-0.749 0.193,-0.179 0.464,-0.269 0.807,-0.269 0.349,0 0.636,0.097 0.862,0.294 0.228,0.195 0.341,0.451 0.341,0.766 0,0.189 -0.075,0.39 -0.228,0.603 -0.155,0.212 -0.557,0.55 -1.208,1.012 -0.268,0.19 -0.479,0.35 -0.633,0.483 -0.153,0.134 -0.282,0.291 -0.386,0.472 -0.104,0.181 -0.156,0.388 -0.156,0.62 0,0.377 0.17,0.687 0.512,0.935 0.342,0.246 0.732,0.37 1.177,0.37 0.252,0 0.522,-0.062 0.811,-0.186 0.288,-0.126 0.431,-0.273 0.431,-0.44 0,-0.024 0,-0.062 -0.004,-0.114 C 2.293,0.355 2.293,0.28 2.293,0.18 c 0,-0.027 0.004,-0.077 0.016,-0.154 0,-0.173 -0.061,-0.259 -0.18,-0.259 -0.044,0 -0.086,0.02 -0.126,0.059 -0.043,0.04 -0.062,0.085 -0.062,0.132 0,0.257 -0.087,0.454 -0.26,0.592 C 1.507,0.687 1.292,0.756 1.04,0.756 0.755,0.756 0.511,0.677 0.306,0.52 0.101,0.362 0,0.188 0,0" /></g></g></g></g></svg>